<?xml version="1.0" encoding="utf-8" standalone="no"?>
<!DOCTYPE svg PUBLIC "-//W3C//DTD SVG 1.1//EN"
  "http://www.w3.org/Graphics/SVG/1.1/DTD/svg11.dtd">
<svg xmlns:xlink="http://www.w3.org/1999/xlink" width="564.762034pt" height="423.051875pt" viewBox="0 0 564.762034 423.051875" xmlns="http://www.w3.org/2000/svg" version="1.1">
 <metadata>
  <rdf:RDF xmlns:dc="http://purl.org/dc/elements/1.1/" xmlns:cc="http://creativecommons.org/ns#" xmlns:rdf="http://www.w3.org/1999/02/22-rdf-syntax-ns#">
   <cc:Work>
    <dc:type rdf:resource="http://purl.org/dc/dcmitype/StillImage"/>
    <dc:date>2025-08-25T17:01:33.809619</dc:date>
    <dc:format>image/svg+xml</dc:format>
    <dc:creator>
     <cc:Agent>
      <dc:title>Matplotlib v3.7.5, https://matplotlib.org/</dc:title>
     </cc:Agent>
    </dc:creator>
   </cc:Work>
  </rdf:RDF>
 </metadata>
 <defs>
  <style type="text/css">*{stroke-linejoin: round; stroke-linecap: butt}</style>
 </defs>
 <g id="figure_1">
  <g id="patch_1">
   <path d="M 0 423.051875 
L 564.762034 423.051875 
L 564.762034 0 
L 0 0 
z
" style="fill: #ffffff"/>
  </g>
  <g id="axes_1">
   <g id="patch_2">
    <path d="M 61.345625 383.56 
L 557.562034 383.56 
L 557.562034 7.2 
L 61.345625 7.2 
z
" style="fill: #ffffff"/>
   </g>
   <g id="matplotlib.axis_1">
    <g id="xtick_1">
     <g id="line2d_1">
      <path d="M 81.63403 383.56 
L 81.63403 7.2 
" clip-path="url(#p3433dfec1d)" style="fill: none; stroke-dasharray: 1.85,0.8; stroke-dashoffset: 0; stroke: #b0b0b0; stroke-width: 0.5"/>
     </g>
     <g id="line2d_2">
      <defs>
       <path id="mc31e0b7cee" d="M 0 0 
L 0 3.5 
" style="stroke: #000000; stroke-width: 0.8"/>
      </defs>
      <g>
       <use xlink:href="#mc31e0b7cee" x="81.63403" y="383.56" style="stroke: #000000; stroke-width: 0.8"/>
      </g>
     </g>
     <g id="text_1">
      <!-- 0.00000 -->
      <g transform="translate(60.957468 398.158437) scale(0.1 -0.1)">
       <defs>
        <path id="DejaVuSans-30" d="M 2034 4250 
Q 1547 4250 1301 3770 
Q 1056 3291 1056 2328 
Q 1056 1369 1301 889 
Q 1547 409 2034 409 
Q 2525 409 2770 889 
Q 3016 1369 3016 2328 
Q 3016 3291 2770 3770 
Q 2525 4250 2034 4250 
z
M 2034 4750 
Q 2819 4750 3233 4129 
Q 3647 3509 3647 2328 
Q 3647 1150 3233 529 
Q 2819 -91 2034 -91 
Q 1250 -91 836 529 
Q 422 1150 422 2328 
Q 422 3509 836 4129 
Q 1250 4750 2034 4750 
z
" transform="scale(0.015625)"/>
        <path id="DejaVuSans-2e" d="M 684 794 
L 1344 794 
L 1344 0 
L 684 0 
L 684 794 
z
" transform="scale(0.015625)"/>
       </defs>
       <use xlink:href="#DejaVuSans-30"/>
       <use xlink:href="#DejaVuSans-2e" x="63.623047"/>
       <use xlink:href="#DejaVuSans-30" x="95.410156"/>
       <use xlink:href="#DejaVuSans-30" x="159.033203"/>
       <use xlink:href="#DejaVuSans-30" x="222.65625"/>
       <use xlink:href="#DejaVuSans-30" x="286.279297"/>
       <use xlink:href="#DejaVuSans-30" x="349.902344"/>
      </g>
     </g>
    </g>
    <g id="xtick_2">
     <g id="line2d_3">
      <path d="M 138.305619 383.56 
L 138.305619 7.2 
" clip-path="url(#p3433dfec1d)" style="fill: none; stroke-dasharray: 1.85,0.8; stroke-dashoffset: 0; stroke: #b0b0b0; stroke-width: 0.5"/>
     </g>
     <g id="line2d_4">
      <g>
       <use xlink:href="#mc31e0b7cee" x="138.305619" y="383.56" style="stroke: #000000; stroke-width: 0.8"/>
      </g>
     </g>
     <g id="text_2">
      <!-- 0.00025 -->
      <g transform="translate(117.629057 398.158437) scale(0.1 -0.1)">
       <defs>
        <path id="DejaVuSans-32" d="M 1228 531 
L 3431 531 
L 3431 0 
L 469 0 
L 469 531 
Q 828 903 1448 1529 
Q 2069 2156 2228 2338 
Q 2531 2678 2651 2914 
Q 2772 3150 2772 3378 
Q 2772 3750 2511 3984 
Q 2250 4219 1831 4219 
Q 1534 4219 1204 4116 
Q 875 4013 500 3803 
L 500 4441 
Q 881 4594 1212 4672 
Q 1544 4750 1819 4750 
Q 2544 4750 2975 4387 
Q 3406 4025 3406 3419 
Q 3406 3131 3298 2873 
Q 3191 2616 2906 2266 
Q 2828 2175 2409 1742 
Q 1991 1309 1228 531 
z
" transform="scale(0.015625)"/>
        <path id="DejaVuSans-35" d="M 691 4666 
L 3169 4666 
L 3169 4134 
L 1269 4134 
L 1269 2991 
Q 1406 3038 1543 3061 
Q 1681 3084 1819 3084 
Q 2600 3084 3056 2656 
Q 3513 2228 3513 1497 
Q 3513 744 3044 326 
Q 2575 -91 1722 -91 
Q 1428 -91 1123 -41 
Q 819 9 494 109 
L 494 744 
Q 775 591 1075 516 
Q 1375 441 1709 441 
Q 2250 441 2565 725 
Q 2881 1009 2881 1497 
Q 2881 1984 2565 2268 
Q 2250 2553 1709 2553 
Q 1456 2553 1204 2497 
Q 953 2441 691 2322 
L 691 4666 
z
" transform="scale(0.015625)"/>
       </defs>
       <use xlink:href="#DejaVuSans-30"/>
       <use xlink:href="#DejaVuSans-2e" x="63.623047"/>
       <use xlink:href="#DejaVuSans-30" x="95.410156"/>
       <use xlink:href="#DejaVuSans-30" x="159.033203"/>
       <use xlink:href="#DejaVuSans-30" x="222.65625"/>
       <use xlink:href="#DejaVuSans-32" x="286.279297"/>
       <use xlink:href="#DejaVuSans-35" x="349.902344"/>
      </g>
     </g>
    </g>
    <g id="xtick_3">
     <g id="line2d_5">
      <path d="M 194.977208 383.56 
L 194.977208 7.2 
" clip-path="url(#p3433dfec1d)" style="fill: none; stroke-dasharray: 1.85,0.8; stroke-dashoffset: 0; stroke: #b0b0b0; stroke-width: 0.5"/>
     </g>
     <g id="line2d_6">
      <g>
       <use xlink:href="#mc31e0b7cee" x="194.977208" y="383.56" style="stroke: #000000; stroke-width: 0.8"/>
      </g>
     </g>
     <g id="text_3">
      <!-- 0.00050 -->
      <g transform="translate(174.300646 398.158437) scale(0.1 -0.1)">
       <use xlink:href="#DejaVuSans-30"/>
       <use xlink:href="#DejaVuSans-2e" x="63.623047"/>
       <use xlink:href="#DejaVuSans-30" x="95.410156"/>
       <use xlink:href="#DejaVuSans-30" x="159.033203"/>
       <use xlink:href="#DejaVuSans-30" x="222.65625"/>
       <use xlink:href="#DejaVuSans-35" x="286.279297"/>
       <use xlink:href="#DejaVuSans-30" x="349.902344"/>
      </g>
     </g>
    </g>
    <g id="xtick_4">
     <g id="line2d_7">
      <path d="M 251.648797 383.56 
L 251.648797 7.2 
" clip-path="url(#p3433dfec1d)" style="fill: none; stroke-dasharray: 1.85,0.8; stroke-dashoffset: 0; stroke: #b0b0b0; stroke-width: 0.5"/>
     </g>
     <g id="line2d_8">
      <g>
       <use xlink:href="#mc31e0b7cee" x="251.648797" y="383.56" style="stroke: #000000; stroke-width: 0.8"/>
      </g>
     </g>
     <g id="text_4">
      <!-- 0.00075 -->
      <g transform="translate(230.972235 398.158437) scale(0.1 -0.1)">
       <defs>
        <path id="DejaVuSans-37" d="M 525 4666 
L 3525 4666 
L 3525 4397 
L 1831 0 
L 1172 0 
L 2766 4134 
L 525 4134 
L 525 4666 
z
" transform="scale(0.015625)"/>
       </defs>
       <use xlink:href="#DejaVuSans-30"/>
       <use xlink:href="#DejaVuSans-2e" x="63.623047"/>
       <use xlink:href="#DejaVuSans-30" x="95.410156"/>
       <use xlink:href="#DejaVuSans-30" x="159.033203"/>
       <use xlink:href="#DejaVuSans-30" x="222.65625"/>
       <use xlink:href="#DejaVuSans-37" x="286.279297"/>
       <use xlink:href="#DejaVuSans-35" x="349.902344"/>
      </g>
     </g>
    </g>
    <g id="xtick_5">
     <g id="line2d_9">
      <path d="M 308.320386 383.56 
L 308.320386 7.2 
" clip-path="url(#p3433dfec1d)" style="fill: none; stroke-dasharray: 1.85,0.8; stroke-dashoffset: 0; stroke: #b0b0b0; stroke-width: 0.5"/>
     </g>
     <g id="line2d_10">
      <g>
       <use xlink:href="#mc31e0b7cee" x="308.320386" y="383.56" style="stroke: #000000; stroke-width: 0.8"/>
      </g>
     </g>
     <g id="text_5">
      <!-- 0.00100 -->
      <g transform="translate(287.643824 398.158437) scale(0.1 -0.1)">
       <defs>
        <path id="DejaVuSans-31" d="M 794 531 
L 1825 531 
L 1825 4091 
L 703 3866 
L 703 4441 
L 1819 4666 
L 2450 4666 
L 2450 531 
L 3481 531 
L 3481 0 
L 794 0 
L 794 531 
z
" transform="scale(0.015625)"/>
       </defs>
       <use xlink:href="#DejaVuSans-30"/>
       <use xlink:href="#DejaVuSans-2e" x="63.623047"/>
       <use xlink:href="#DejaVuSans-30" x="95.410156"/>
       <use xlink:href="#DejaVuSans-30" x="159.033203"/>
       <use xlink:href="#DejaVuSans-31" x="222.65625"/>
       <use xlink:href="#DejaVuSans-30" x="286.279297"/>
       <use xlink:href="#DejaVuSans-30" x="349.902344"/>
      </g>
     </g>
    </g>
    <g id="xtick_6">
     <g id="line2d_11">
      <path d="M 364.991976 383.56 
L 364.991976 7.2 
" clip-path="url(#p3433dfec1d)" style="fill: none; stroke-dasharray: 1.85,0.8; stroke-dashoffset: 0; stroke: #b0b0b0; stroke-width: 0.5"/>
     </g>
     <g id="line2d_12">
      <g>
       <use xlink:href="#mc31e0b7cee" x="364.991976" y="383.56" style="stroke: #000000; stroke-width: 0.8"/>
      </g>
     </g>
     <g id="text_6">
      <!-- 0.00125 -->
      <g transform="translate(344.315413 398.158437) scale(0.1 -0.1)">
       <use xlink:href="#DejaVuSans-30"/>
       <use xlink:href="#DejaVuSans-2e" x="63.623047"/>
       <use xlink:href="#DejaVuSans-30" x="95.410156"/>
       <use xlink:href="#DejaVuSans-30" x="159.033203"/>
       <use xlink:href="#DejaVuSans-31" x="222.65625"/>
       <use xlink:href="#DejaVuSans-32" x="286.279297"/>
       <use xlink:href="#DejaVuSans-35" x="349.902344"/>
      </g>
     </g>
    </g>
    <g id="xtick_7">
     <g id="line2d_13">
      <path d="M 421.663565 383.56 
L 421.663565 7.2 
" clip-path="url(#p3433dfec1d)" style="fill: none; stroke-dasharray: 1.85,0.8; stroke-dashoffset: 0; stroke: #b0b0b0; stroke-width: 0.5"/>
     </g>
     <g id="line2d_14">
      <g>
       <use xlink:href="#mc31e0b7cee" x="421.663565" y="383.56" style="stroke: #000000; stroke-width: 0.8"/>
      </g>
     </g>
     <g id="text_7">
      <!-- 0.00150 -->
      <g transform="translate(400.987002 398.158437) scale(0.1 -0.1)">
       <use xlink:href="#DejaVuSans-30"/>
       <use xlink:href="#DejaVuSans-2e" x="63.623047"/>
       <use xlink:href="#DejaVuSans-30" x="95.410156"/>
       <use xlink:href="#DejaVuSans-30" x="159.033203"/>
       <use xlink:href="#DejaVuSans-31" x="222.65625"/>
       <use xlink:href="#DejaVuSans-35" x="286.279297"/>
       <use xlink:href="#DejaVuSans-30" x="349.902344"/>
      </g>
     </g>
    </g>
    <g id="xtick_8">
     <g id="line2d_15">
      <path d="M 478.335154 383.56 
L 478.335154 7.2 
" clip-path="url(#p3433dfec1d)" style="fill: none; stroke-dasharray: 1.85,0.8; stroke-dashoffset: 0; stroke: #b0b0b0; stroke-width: 0.5"/>
     </g>
     <g id="line2d_16">
      <g>
       <use xlink:href="#mc31e0b7cee" x="478.335154" y="383.56" style="stroke: #000000; stroke-width: 0.8"/>
      </g>
     </g>
     <g id="text_8">
      <!-- 0.00175 -->
      <g transform="translate(457.658591 398.158437) scale(0.1 -0.1)">
       <use xlink:href="#DejaVuSans-30"/>
       <use xlink:href="#DejaVuSans-2e" x="63.623047"/>
       <use xlink:href="#DejaVuSans-30" x="95.410156"/>
       <use xlink:href="#DejaVuSans-30" x="159.033203"/>
       <use xlink:href="#DejaVuSans-31" x="222.65625"/>
       <use xlink:href="#DejaVuSans-37" x="286.279297"/>
       <use xlink:href="#DejaVuSans-35" x="349.902344"/>
      </g>
     </g>
    </g>
    <g id="xtick_9">
     <g id="line2d_17">
      <path d="M 535.006743 383.56 
L 535.006743 7.2 
" clip-path="url(#p3433dfec1d)" style="fill: none; stroke-dasharray: 1.85,0.8; stroke-dashoffset: 0; stroke: #b0b0b0; stroke-width: 0.5"/>
     </g>
     <g id="line2d_18">
      <g>
       <use xlink:href="#mc31e0b7cee" x="535.006743" y="383.56" style="stroke: #000000; stroke-width: 0.8"/>
      </g>
     </g>
     <g id="text_9">
      <!-- 0.00200 -->
      <g transform="translate(514.33018 398.158437) scale(0.1 -0.1)">
       <use xlink:href="#DejaVuSans-30"/>
       <use xlink:href="#DejaVuSans-2e" x="63.623047"/>
       <use xlink:href="#DejaVuSans-30" x="95.410156"/>
       <use xlink:href="#DejaVuSans-30" x="159.033203"/>
       <use xlink:href="#DejaVuSans-32" x="222.65625"/>
       <use xlink:href="#DejaVuSans-30" x="286.279297"/>
       <use xlink:href="#DejaVuSans-30" x="349.902344"/>
      </g>
     </g>
    </g>
    <g id="text_10">
     <!-- $\mathrm{s_s}$ -->
     <g transform="translate(303.87383 413.35625) scale(0.12 -0.12)">
      <defs>
       <path id="DejaVuSans-73" d="M 2834 3397 
L 2834 2853 
Q 2591 2978 2328 3040 
Q 2066 3103 1784 3103 
Q 1356 3103 1142 2972 
Q 928 2841 928 2578 
Q 928 2378 1081 2264 
Q 1234 2150 1697 2047 
L 1894 2003 
Q 2506 1872 2764 1633 
Q 3022 1394 3022 966 
Q 3022 478 2636 193 
Q 2250 -91 1575 -91 
Q 1294 -91 989 -36 
Q 684 19 347 128 
L 347 722 
Q 666 556 975 473 
Q 1284 391 1588 391 
Q 1994 391 2212 530 
Q 2431 669 2431 922 
Q 2431 1156 2273 1281 
Q 2116 1406 1581 1522 
L 1381 1569 
Q 847 1681 609 1914 
Q 372 2147 372 2553 
Q 372 3047 722 3315 
Q 1072 3584 1716 3584 
Q 2034 3584 2315 3537 
Q 2597 3491 2834 3397 
z
" transform="scale(0.015625)"/>
      </defs>
      <use xlink:href="#DejaVuSans-73"/>
      <use xlink:href="#DejaVuSans-73" transform="translate(53.056641 -16.40625) scale(0.7)"/>
     </g>
    </g>
   </g>
   <g id="matplotlib.axis_2">
    <g id="ytick_1">
     <g id="line2d_19">
      <path d="M 61.345625 373.827721 
L 557.562034 373.827721 
" clip-path="url(#p3433dfec1d)" style="fill: none; stroke-dasharray: 1.85,0.8; stroke-dashoffset: 0; stroke: #b0b0b0; stroke-width: 0.5"/>
     </g>
     <g id="line2d_20">
      <defs>
       <path id="m816aca4374" d="M 0 0 
L -3.5 0 
" style="stroke: #000000; stroke-width: 0.8"/>
      </defs>
      <g>
       <use xlink:href="#m816aca4374" x="61.345625" y="373.827721" style="stroke: #000000; stroke-width: 0.8"/>
      </g>
     </g>
     <g id="text_11">
      <!-- 0.00 -->
      <g transform="translate(32.08 377.62694) scale(0.1 -0.1)">
       <use xlink:href="#DejaVuSans-30"/>
       <use xlink:href="#DejaVuSans-2e" x="63.623047"/>
       <use xlink:href="#DejaVuSans-30" x="95.410156"/>
       <use xlink:href="#DejaVuSans-30" x="159.033203"/>
      </g>
     </g>
    </g>
    <g id="ytick_2">
     <g id="line2d_21">
      <path d="M 61.345625 311.426516 
L 557.562034 311.426516 
" clip-path="url(#p3433dfec1d)" style="fill: none; stroke-dasharray: 1.85,0.8; stroke-dashoffset: 0; stroke: #b0b0b0; stroke-width: 0.5"/>
     </g>
     <g id="line2d_22">
      <g>
       <use xlink:href="#m816aca4374" x="61.345625" y="311.426516" style="stroke: #000000; stroke-width: 0.8"/>
      </g>
     </g>
     <g id="text_12">
      <!-- 0.05 -->
      <g transform="translate(32.08 315.225735) scale(0.1 -0.1)">
       <use xlink:href="#DejaVuSans-30"/>
       <use xlink:href="#DejaVuSans-2e" x="63.623047"/>
       <use xlink:href="#DejaVuSans-30" x="95.410156"/>
       <use xlink:href="#DejaVuSans-35" x="159.033203"/>
      </g>
     </g>
    </g>
    <g id="ytick_3">
     <g id="line2d_23">
      <path d="M 61.345625 249.025312 
L 557.562034 249.025312 
" clip-path="url(#p3433dfec1d)" style="fill: none; stroke-dasharray: 1.85,0.8; stroke-dashoffset: 0; stroke: #b0b0b0; stroke-width: 0.5"/>
     </g>
     <g id="line2d_24">
      <g>
       <use xlink:href="#m816aca4374" x="61.345625" y="249.025312" style="stroke: #000000; stroke-width: 0.8"/>
      </g>
     </g>
     <g id="text_13">
      <!-- 0.10 -->
      <g transform="translate(32.08 252.824531) scale(0.1 -0.1)">
       <use xlink:href="#DejaVuSans-30"/>
       <use xlink:href="#DejaVuSans-2e" x="63.623047"/>
       <use xlink:href="#DejaVuSans-31" x="95.410156"/>
       <use xlink:href="#DejaVuSans-30" x="159.033203"/>
      </g>
     </g>
    </g>
    <g id="ytick_4">
     <g id="line2d_25">
      <path d="M 61.345625 186.624107 
L 557.562034 186.624107 
" clip-path="url(#p3433dfec1d)" style="fill: none; stroke-dasharray: 1.85,0.8; stroke-dashoffset: 0; stroke: #b0b0b0; stroke-width: 0.5"/>
     </g>
     <g id="line2d_26">
      <g>
       <use xlink:href="#m816aca4374" x="61.345625" y="186.624107" style="stroke: #000000; stroke-width: 0.8"/>
      </g>
     </g>
     <g id="text_14">
      <!-- 0.15 -->
      <g transform="translate(32.08 190.423326) scale(0.1 -0.1)">
       <use xlink:href="#DejaVuSans-30"/>
       <use xlink:href="#DejaVuSans-2e" x="63.623047"/>
       <use xlink:href="#DejaVuSans-31" x="95.410156"/>
       <use xlink:href="#DejaVuSans-35" x="159.033203"/>
      </g>
     </g>
    </g>
    <g id="ytick_5">
     <g id="line2d_27">
      <path d="M 61.345625 124.222903 
L 557.562034 124.222903 
" clip-path="url(#p3433dfec1d)" style="fill: none; stroke-dasharray: 1.85,0.8; stroke-dashoffset: 0; stroke: #b0b0b0; stroke-width: 0.5"/>
     </g>
     <g id="line2d_28">
      <g>
       <use xlink:href="#m816aca4374" x="61.345625" y="124.222903" style="stroke: #000000; stroke-width: 0.8"/>
      </g>
     </g>
     <g id="text_15">
      <!-- 0.20 -->
      <g transform="translate(32.08 128.022121) scale(0.1 -0.1)">
       <use xlink:href="#DejaVuSans-30"/>
       <use xlink:href="#DejaVuSans-2e" x="63.623047"/>
       <use xlink:href="#DejaVuSans-32" x="95.410156"/>
       <use xlink:href="#DejaVuSans-30" x="159.033203"/>
      </g>
     </g>
    </g>
    <g id="ytick_6">
     <g id="line2d_29">
      <path d="M 61.345625 61.821698 
L 557.562034 61.821698 
" clip-path="url(#p3433dfec1d)" style="fill: none; stroke-dasharray: 1.85,0.8; stroke-dashoffset: 0; stroke: #b0b0b0; stroke-width: 0.5"/>
     </g>
     <g id="line2d_30">
      <g>
       <use xlink:href="#m816aca4374" x="61.345625" y="61.821698" style="stroke: #000000; stroke-width: 0.8"/>
      </g>
     </g>
     <g id="text_16">
      <!-- 0.25 -->
      <g transform="translate(32.08 65.620917) scale(0.1 -0.1)">
       <use xlink:href="#DejaVuSans-30"/>
       <use xlink:href="#DejaVuSans-2e" x="63.623047"/>
       <use xlink:href="#DejaVuSans-32" x="95.410156"/>
       <use xlink:href="#DejaVuSans-35" x="159.033203"/>
      </g>
     </g>
    </g>
    <g id="text_17">
     <!-- $\sup_{t\geq0}(u(t) - \tilde{u}(t))$ -->
     <g transform="translate(16.92 239.84) rotate(-90) scale(0.12 -0.12)">
      <defs>
       <path id="DejaVuSans-75" d="M 544 1381 
L 544 3500 
L 1119 3500 
L 1119 1403 
Q 1119 906 1312 657 
Q 1506 409 1894 409 
Q 2359 409 2629 706 
Q 2900 1003 2900 1516 
L 2900 3500 
L 3475 3500 
L 3475 0 
L 2900 0 
L 2900 538 
Q 2691 219 2414 64 
Q 2138 -91 1772 -91 
Q 1169 -91 856 284 
Q 544 659 544 1381 
z
M 1991 3584 
L 1991 3584 
z
" transform="scale(0.015625)"/>
       <path id="DejaVuSans-70" d="M 1159 525 
L 1159 -1331 
L 581 -1331 
L 581 3500 
L 1159 3500 
L 1159 2969 
Q 1341 3281 1617 3432 
Q 1894 3584 2278 3584 
Q 2916 3584 3314 3078 
Q 3713 2572 3713 1747 
Q 3713 922 3314 415 
Q 2916 -91 2278 -91 
Q 1894 -91 1617 61 
Q 1341 213 1159 525 
z
M 3116 1747 
Q 3116 2381 2855 2742 
Q 2594 3103 2138 3103 
Q 1681 3103 1420 2742 
Q 1159 2381 1159 1747 
Q 1159 1113 1420 752 
Q 1681 391 2138 391 
Q 2594 391 2855 752 
Q 3116 1113 3116 1747 
z
" transform="scale(0.015625)"/>
       <path id="DejaVuSans-Oblique-74" d="M 2706 3500 
L 2619 3053 
L 1472 3053 
L 1100 1153 
Q 1081 1047 1072 975 
Q 1063 903 1063 863 
Q 1063 663 1183 572 
Q 1303 481 1569 481 
L 2150 481 
L 2053 0 
L 1503 0 
Q 991 0 739 200 
Q 488 400 488 806 
Q 488 878 497 964 
Q 506 1050 525 1153 
L 897 3053 
L 409 3053 
L 500 3500 
L 978 3500 
L 1172 4494 
L 1747 4494 
L 1556 3500 
L 2706 3500 
z
" transform="scale(0.015625)"/>
       <path id="DejaVuSans-2265" d="M 678 3175 
L 678 3725 
L 4684 2578 
L 4684 2047 
L 678 897 
L 678 1453 
L 3681 2309 
L 678 3175 
z
M 4684 531 
L 4684 0 
L 678 0 
L 678 531 
L 4684 531 
z
" transform="scale(0.015625)"/>
       <path id="DejaVuSans-28" d="M 1984 4856 
Q 1566 4138 1362 3434 
Q 1159 2731 1159 2009 
Q 1159 1288 1364 580 
Q 1569 -128 1984 -844 
L 1484 -844 
Q 1016 -109 783 600 
Q 550 1309 550 2009 
Q 550 2706 781 3412 
Q 1013 4119 1484 4856 
L 1984 4856 
z
" transform="scale(0.015625)"/>
       <path id="DejaVuSans-Oblique-75" d="M 428 1388 
L 838 3500 
L 1416 3500 
L 1006 1409 
Q 975 1256 961 1147 
Q 947 1038 947 966 
Q 947 700 1109 554 
Q 1272 409 1569 409 
Q 2031 409 2368 721 
Q 2706 1034 2809 1563 
L 3194 3500 
L 3769 3500 
L 3091 0 
L 2516 0 
L 2631 550 
Q 2388 244 2052 76 
Q 1716 -91 1338 -91 
Q 878 -91 622 161 
Q 366 413 366 863 
Q 366 956 381 1097 
Q 397 1238 428 1388 
z
" transform="scale(0.015625)"/>
       <path id="DejaVuSans-29" d="M 513 4856 
L 1013 4856 
Q 1481 4119 1714 3412 
Q 1947 2706 1947 2009 
Q 1947 1309 1714 600 
Q 1481 -109 1013 -844 
L 513 -844 
Q 928 -128 1133 580 
Q 1338 1288 1338 2009 
Q 1338 2731 1133 3434 
Q 928 4138 513 4856 
z
" transform="scale(0.015625)"/>
       <path id="DejaVuSans-2212" d="M 678 2272 
L 4684 2272 
L 4684 1741 
L 678 1741 
L 678 2272 
z
" transform="scale(0.015625)"/>
       <path id="DejaVuSans-303" d="M -1621 4281 
L -1799 4453 
Q -1867 4516 -1919 4545 
Q -1971 4575 -2011 4575 
Q -2130 4575 -2186 4461 
Q -2242 4347 -2249 4091 
L -2639 4091 
Q -2633 4513 -2473 4742 
Q -2314 4972 -2030 4972 
Q -1911 4972 -1811 4928 
Q -1711 4884 -1596 4781 
L -1417 4609 
Q -1349 4547 -1297 4517 
Q -1246 4488 -1205 4488 
Q -1086 4488 -1030 4602 
Q -974 4716 -967 4972 
L -577 4972 
Q -583 4550 -742 4320 
Q -902 4091 -1186 4091 
Q -1305 4091 -1405 4134 
Q -1505 4178 -1621 4281 
z
" transform="scale(0.015625)"/>
      </defs>
      <use xlink:href="#DejaVuSans-73" transform="translate(0 0.046875)"/>
      <use xlink:href="#DejaVuSans-75" transform="translate(52.099609 0.046875)"/>
      <use xlink:href="#DejaVuSans-70" transform="translate(115.478516 0.046875)"/>
      <use xlink:href="#DejaVuSans-Oblique-74" transform="translate(11 -91.453125) scale(0.7)"/>
      <use xlink:href="#DejaVuSans-2265" transform="translate(52.083984 -91.453125) scale(0.7)"/>
      <use xlink:href="#DejaVuSans-30" transform="translate(124.374023 -91.453125) scale(0.7)"/>
      <use xlink:href="#DejaVuSans-28" transform="translate(178.955078 0.046875)"/>
      <use xlink:href="#DejaVuSans-Oblique-75" transform="translate(217.96875 0.046875)"/>
      <use xlink:href="#DejaVuSans-28" transform="translate(281.347656 0.046875)"/>
      <use xlink:href="#DejaVuSans-Oblique-74" transform="translate(320.361328 0.046875)"/>
      <use xlink:href="#DejaVuSans-29" transform="translate(359.570312 0.046875)"/>
      <use xlink:href="#DejaVuSans-2212" transform="translate(418.066406 0.046875)"/>
      <use xlink:href="#DejaVuSans-303" transform="translate(586.416992 3.3125)"/>
      <use xlink:href="#DejaVuSans-Oblique-75" transform="translate(521.337891 0.046875)"/>
      <use xlink:href="#DejaVuSans-28" transform="translate(584.716797 0.046875)"/>
      <use xlink:href="#DejaVuSans-Oblique-74" transform="translate(623.730469 0.046875)"/>
      <use xlink:href="#DejaVuSans-29" transform="translate(662.939453 0.046875)"/>
      <use xlink:href="#DejaVuSans-29" transform="translate(701.953125 0.046875)"/>
     </g>
    </g>
   </g>
   <g id="line2d_31">
    <path d="M 83.900916 366.452727 
L 88.457616 366.308826 
L 93.014439 365.346248 
L 97.570922 365.003567 
L 102.128231 365.557738 
L 106.685014 363.783194 
L 111.243011 363.041749 
L 115.799268 361.070875 
L 120.357357 357.348681 
L 124.911303 357.817325 
L 129.468248 360.011077 
L 134.034945 363.742827 
L 138.590401 360.693505 
L 143.150002 356.665235 
L 147.704084 355.61962 
L 152.252833 350.549287 
L 156.820218 353.928621 
L 161.368943 357.56451 
L 165.93539 362.632987 
L 170.495793 355.982407 
L 175.035907 354.685788 
L 179.597019 357.742178 
L 184.16065 344.217048 
L 188.713084 358.44409 
L 193.302186 334.816153 
L 197.823859 355.970719 
L 202.404598 350.380101 
L 206.944343 344.185036 
L 211.540251 355.638674 
L 216.086199 360.060471 
L 220.620147 344.051122 
L 225.19727 318.991038 
L 229.795047 349.392214 
L 234.284775 348.601493 
L 238.836774 345.059764 
L 243.437282 351.085015 
L 247.948305 334.959013 
L 252.58905 342.39876 
L 257.087866 336.436374 
L 261.686736 335.873198 
L 266.23204 346.936359 
L 270.854695 320.339499 
L 275.383053 336.801249 
L 279.959801 333.201528 
L 284.394635 329.934018 
L 289.032343 314.651167 
L 293.68862 323.927785 
L 298.144399 312.67975 
L 302.791451 321.500565 
L 307.192594 326.789084 
L 311.772463 335.072908 
L 316.298995 352.326869 
L 321.007162 315.249089 
L 325.645178 342.694677 
L 330.193631 352.566459 
L 334.632196 349.187418 
L 339.232162 305.494536 
L 343.699182 328.549698 
L 348.323861 338.208064 
L 352.789959 320.752456 
L 357.408186 303.786292 
L 362.186451 338.002946 
L 366.415885 343.622104 
L 371.144064 344.773201 
L 375.650056 328.762728 
L 380.298531 324.614382 
L 384.690656 332.224065 
L 389.213889 299.737644 
L 393.87419 337.575943 
L 398.677885 299.589965 
L 403.174961 327.249816 
L 407.801449 317.582595 
L 412.080614 297.532889 
L 416.968877 292.533409 
L 421.493635 334.474844 
L 426.14217 302.683581 
L 430.382271 350.495188 
L 435.278892 305.002265 
L 439.748337 318.857878 
L 444.3322 289.142152 
L 448.440432 344.904734 
L 453.251008 278.906663 
L 457.564969 275.466166 
L 462.619503 278.683005 
L 467.155044 351.903655 
L 471.799876 317.995808 
L 475.871172 337.157505 
L 480.729728 258.150171 
L 484.990536 328.671706 
L 490.077915 342.752406 
L 494.541783 269.386544 
L 499.1043 233.165569 
L 503.768772 287.81621 
L 507.736204 293.289013 
L 512.596685 329.779689 
L 517.569331 306.668162 
L 521.801712 304.916545 
L 526.117082 222.891521 
L 530.517904 307.824843 
L 535.006743 340.934528 
" clip-path="url(#p3433dfec1d)" style="fill: none; stroke: #ffa500; stroke-width: 2; stroke-linecap: square"/>
    <defs>
     <path id="m1d86c54df2" d="M 0 2 
C 0.530406 2 1.03916 1.789267 1.414214 1.414214 
C 1.789267 1.03916 2 0.530406 2 0 
C 2 -0.530406 1.789267 -1.03916 1.414214 -1.414214 
C 1.03916 -1.789267 0.530406 -2 0 -2 
C -0.530406 -2 -1.03916 -1.789267 -1.414214 -1.414214 
C -1.789267 -1.03916 -2 -0.530406 -2 0 
C -2 0.530406 -1.789267 1.03916 -1.414214 1.414214 
C -1.03916 1.789267 -0.530406 2 0 2 
z
" style="stroke: #ffa500"/>
    </defs>
    <g clip-path="url(#p3433dfec1d)">
     <use xlink:href="#m1d86c54df2" x="83.900916" y="366.452727" style="fill: #ffa500; stroke: #ffa500"/>
     <use xlink:href="#m1d86c54df2" x="88.457616" y="366.308826" style="fill: #ffa500; stroke: #ffa500"/>
     <use xlink:href="#m1d86c54df2" x="93.014439" y="365.346248" style="fill: #ffa500; stroke: #ffa500"/>
     <use xlink:href="#m1d86c54df2" x="97.570922" y="365.003567" style="fill: #ffa500; stroke: #ffa500"/>
     <use xlink:href="#m1d86c54df2" x="102.128231" y="365.557738" style="fill: #ffa500; stroke: #ffa500"/>
     <use xlink:href="#m1d86c54df2" x="106.685014" y="363.783194" style="fill: #ffa500; stroke: #ffa500"/>
     <use xlink:href="#m1d86c54df2" x="111.243011" y="363.041749" style="fill: #ffa500; stroke: #ffa500"/>
     <use xlink:href="#m1d86c54df2" x="115.799268" y="361.070875" style="fill: #ffa500; stroke: #ffa500"/>
     <use xlink:href="#m1d86c54df2" x="120.357357" y="357.348681" style="fill: #ffa500; stroke: #ffa500"/>
     <use xlink:href="#m1d86c54df2" x="124.911303" y="357.817325" style="fill: #ffa500; stroke: #ffa500"/>
     <use xlink:href="#m1d86c54df2" x="129.468248" y="360.011077" style="fill: #ffa500; stroke: #ffa500"/>
     <use xlink:href="#m1d86c54df2" x="134.034945" y="363.742827" style="fill: #ffa500; stroke: #ffa500"/>
     <use xlink:href="#m1d86c54df2" x="138.590401" y="360.693505" style="fill: #ffa500; stroke: #ffa500"/>
     <use xlink:href="#m1d86c54df2" x="143.150002" y="356.665235" style="fill: #ffa500; stroke: #ffa500"/>
     <use xlink:href="#m1d86c54df2" x="147.704084" y="355.61962" style="fill: #ffa500; stroke: #ffa500"/>
     <use xlink:href="#m1d86c54df2" x="152.252833" y="350.549287" style="fill: #ffa500; stroke: #ffa500"/>
     <use xlink:href="#m1d86c54df2" x="156.820218" y="353.928621" style="fill: #ffa500; stroke: #ffa500"/>
     <use xlink:href="#m1d86c54df2" x="161.368943" y="357.56451" style="fill: #ffa500; stroke: #ffa500"/>
     <use xlink:href="#m1d86c54df2" x="165.93539" y="362.632987" style="fill: #ffa500; stroke: #ffa500"/>
     <use xlink:href="#m1d86c54df2" x="170.495793" y="355.982407" style="fill: #ffa500; stroke: #ffa500"/>
     <use xlink:href="#m1d86c54df2" x="175.035907" y="354.685788" style="fill: #ffa500; stroke: #ffa500"/>
     <use xlink:href="#m1d86c54df2" x="179.597019" y="357.742178" style="fill: #ffa500; stroke: #ffa500"/>
     <use xlink:href="#m1d86c54df2" x="184.16065" y="344.217048" style="fill: #ffa500; stroke: #ffa500"/>
     <use xlink:href="#m1d86c54df2" x="188.713084" y="358.44409" style="fill: #ffa500; stroke: #ffa500"/>
     <use xlink:href="#m1d86c54df2" x="193.302186" y="334.816153" style="fill: #ffa500; stroke: #ffa500"/>
     <use xlink:href="#m1d86c54df2" x="197.823859" y="355.970719" style="fill: #ffa500; stroke: #ffa500"/>
     <use xlink:href="#m1d86c54df2" x="202.404598" y="350.380101" style="fill: #ffa500; stroke: #ffa500"/>
     <use xlink:href="#m1d86c54df2" x="206.944343" y="344.185036" style="fill: #ffa500; stroke: #ffa500"/>
     <use xlink:href="#m1d86c54df2" x="211.540251" y="355.638674" style="fill: #ffa500; stroke: #ffa500"/>
     <use xlink:href="#m1d86c54df2" x="216.086199" y="360.060471" style="fill: #ffa500; stroke: #ffa500"/>
     <use xlink:href="#m1d86c54df2" x="220.620147" y="344.051122" style="fill: #ffa500; stroke: #ffa500"/>
     <use xlink:href="#m1d86c54df2" x="225.19727" y="318.991038" style="fill: #ffa500; stroke: #ffa500"/>
     <use xlink:href="#m1d86c54df2" x="229.795047" y="349.392214" style="fill: #ffa500; stroke: #ffa500"/>
     <use xlink:href="#m1d86c54df2" x="234.284775" y="348.601493" style="fill: #ffa500; stroke: #ffa500"/>
     <use xlink:href="#m1d86c54df2" x="238.836774" y="345.059764" style="fill: #ffa500; stroke: #ffa500"/>
     <use xlink:href="#m1d86c54df2" x="243.437282" y="351.085015" style="fill: #ffa500; stroke: #ffa500"/>
     <use xlink:href="#m1d86c54df2" x="247.948305" y="334.959013" style="fill: #ffa500; stroke: #ffa500"/>
     <use xlink:href="#m1d86c54df2" x="252.58905" y="342.39876" style="fill: #ffa500; stroke: #ffa500"/>
     <use xlink:href="#m1d86c54df2" x="257.087866" y="336.436374" style="fill: #ffa500; stroke: #ffa500"/>
     <use xlink:href="#m1d86c54df2" x="261.686736" y="335.873198" style="fill: #ffa500; stroke: #ffa500"/>
     <use xlink:href="#m1d86c54df2" x="266.23204" y="346.936359" style="fill: #ffa500; stroke: #ffa500"/>
     <use xlink:href="#m1d86c54df2" x="270.854695" y="320.339499" style="fill: #ffa500; stroke: #ffa500"/>
     <use xlink:href="#m1d86c54df2" x="275.383053" y="336.801249" style="fill: #ffa500; stroke: #ffa500"/>
     <use xlink:href="#m1d86c54df2" x="279.959801" y="333.201528" style="fill: #ffa500; stroke: #ffa500"/>
     <use xlink:href="#m1d86c54df2" x="284.394635" y="329.934018" style="fill: #ffa500; stroke: #ffa500"/>
     <use xlink:href="#m1d86c54df2" x="289.032343" y="314.651167" style="fill: #ffa500; stroke: #ffa500"/>
     <use xlink:href="#m1d86c54df2" x="293.68862" y="323.927785" style="fill: #ffa500; stroke: #ffa500"/>
     <use xlink:href="#m1d86c54df2" x="298.144399" y="312.67975" style="fill: #ffa500; stroke: #ffa500"/>
     <use xlink:href="#m1d86c54df2" x="302.791451" y="321.500565" style="fill: #ffa500; stroke: #ffa500"/>
     <use xlink:href="#m1d86c54df2" x="307.192594" y="326.789084" style="fill: #ffa500; stroke: #ffa500"/>
     <use xlink:href="#m1d86c54df2" x="311.772463" y="335.072908" style="fill: #ffa500; stroke: #ffa500"/>
     <use xlink:href="#m1d86c54df2" x="316.298995" y="352.326869" style="fill: #ffa500; stroke: #ffa500"/>
     <use xlink:href="#m1d86c54df2" x="321.007162" y="315.249089" style="fill: #ffa500; stroke: #ffa500"/>
     <use xlink:href="#m1d86c54df2" x="325.645178" y="342.694677" style="fill: #ffa500; stroke: #ffa500"/>
     <use xlink:href="#m1d86c54df2" x="330.193631" y="352.566459" style="fill: #ffa500; stroke: #ffa500"/>
     <use xlink:href="#m1d86c54df2" x="334.632196" y="349.187418" style="fill: #ffa500; stroke: #ffa500"/>
     <use xlink:href="#m1d86c54df2" x="339.232162" y="305.494536" style="fill: #ffa500; stroke: #ffa500"/>
     <use xlink:href="#m1d86c54df2" x="343.699182" y="328.549698" style="fill: #ffa500; stroke: #ffa500"/>
     <use xlink:href="#m1d86c54df2" x="348.323861" y="338.208064" style="fill: #ffa500; stroke: #ffa500"/>
     <use xlink:href="#m1d86c54df2" x="352.789959" y="320.752456" style="fill: #ffa500; stroke: #ffa500"/>
     <use xlink:href="#m1d86c54df2" x="357.408186" y="303.786292" style="fill: #ffa500; stroke: #ffa500"/>
     <use xlink:href="#m1d86c54df2" x="362.186451" y="338.002946" style="fill: #ffa500; stroke: #ffa500"/>
     <use xlink:href="#m1d86c54df2" x="366.415885" y="343.622104" style="fill: #ffa500; stroke: #ffa500"/>
     <use xlink:href="#m1d86c54df2" x="371.144064" y="344.773201" style="fill: #ffa500; stroke: #ffa500"/>
     <use xlink:href="#m1d86c54df2" x="375.650056" y="328.762728" style="fill: #ffa500; stroke: #ffa500"/>
     <use xlink:href="#m1d86c54df2" x="380.298531" y="324.614382" style="fill: #ffa500; stroke: #ffa500"/>
     <use xlink:href="#m1d86c54df2" x="384.690656" y="332.224065" style="fill: #ffa500; stroke: #ffa500"/>
     <use xlink:href="#m1d86c54df2" x="389.213889" y="299.737644" style="fill: #ffa500; stroke: #ffa500"/>
     <use xlink:href="#m1d86c54df2" x="393.87419" y="337.575943" style="fill: #ffa500; stroke: #ffa500"/>
     <use xlink:href="#m1d86c54df2" x="398.677885" y="299.589965" style="fill: #ffa500; stroke: #ffa500"/>
     <use xlink:href="#m1d86c54df2" x="403.174961" y="327.249816" style="fill: #ffa500; stroke: #ffa500"/>
     <use xlink:href="#m1d86c54df2" x="407.801449" y="317.582595" style="fill: #ffa500; stroke: #ffa500"/>
     <use xlink:href="#m1d86c54df2" x="412.080614" y="297.532889" style="fill: #ffa500; stroke: #ffa500"/>
     <use xlink:href="#m1d86c54df2" x="416.968877" y="292.533409" style="fill: #ffa500; stroke: #ffa500"/>
     <use xlink:href="#m1d86c54df2" x="421.493635" y="334.474844" style="fill: #ffa500; stroke: #ffa500"/>
     <use xlink:href="#m1d86c54df2" x="426.14217" y="302.683581" style="fill: #ffa500; stroke: #ffa500"/>
     <use xlink:href="#m1d86c54df2" x="430.382271" y="350.495188" style="fill: #ffa500; stroke: #ffa500"/>
     <use xlink:href="#m1d86c54df2" x="435.278892" y="305.002265" style="fill: #ffa500; stroke: #ffa500"/>
     <use xlink:href="#m1d86c54df2" x="439.748337" y="318.857878" style="fill: #ffa500; stroke: #ffa500"/>
     <use xlink:href="#m1d86c54df2" x="444.3322" y="289.142152" style="fill: #ffa500; stroke: #ffa500"/>
     <use xlink:href="#m1d86c54df2" x="448.440432" y="344.904734" style="fill: #ffa500; stroke: #ffa500"/>
     <use xlink:href="#m1d86c54df2" x="453.251008" y="278.906663" style="fill: #ffa500; stroke: #ffa500"/>
     <use xlink:href="#m1d86c54df2" x="457.564969" y="275.466166" style="fill: #ffa500; stroke: #ffa500"/>
     <use xlink:href="#m1d86c54df2" x="462.619503" y="278.683005" style="fill: #ffa500; stroke: #ffa500"/>
     <use xlink:href="#m1d86c54df2" x="467.155044" y="351.903655" style="fill: #ffa500; stroke: #ffa500"/>
     <use xlink:href="#m1d86c54df2" x="471.799876" y="317.995808" style="fill: #ffa500; stroke: #ffa500"/>
     <use xlink:href="#m1d86c54df2" x="475.871172" y="337.157505" style="fill: #ffa500; stroke: #ffa500"/>
     <use xlink:href="#m1d86c54df2" x="480.729728" y="258.150171" style="fill: #ffa500; stroke: #ffa500"/>
     <use xlink:href="#m1d86c54df2" x="484.990536" y="328.671706" style="fill: #ffa500; stroke: #ffa500"/>
     <use xlink:href="#m1d86c54df2" x="490.077915" y="342.752406" style="fill: #ffa500; stroke: #ffa500"/>
     <use xlink:href="#m1d86c54df2" x="494.541783" y="269.386544" style="fill: #ffa500; stroke: #ffa500"/>
     <use xlink:href="#m1d86c54df2" x="499.1043" y="233.165569" style="fill: #ffa500; stroke: #ffa500"/>
     <use xlink:href="#m1d86c54df2" x="503.768772" y="287.81621" style="fill: #ffa500; stroke: #ffa500"/>
     <use xlink:href="#m1d86c54df2" x="507.736204" y="293.289013" style="fill: #ffa500; stroke: #ffa500"/>
     <use xlink:href="#m1d86c54df2" x="512.596685" y="329.779689" style="fill: #ffa500; stroke: #ffa500"/>
     <use xlink:href="#m1d86c54df2" x="517.569331" y="306.668162" style="fill: #ffa500; stroke: #ffa500"/>
     <use xlink:href="#m1d86c54df2" x="521.801712" y="304.916545" style="fill: #ffa500; stroke: #ffa500"/>
     <use xlink:href="#m1d86c54df2" x="526.117082" y="222.891521" style="fill: #ffa500; stroke: #ffa500"/>
     <use xlink:href="#m1d86c54df2" x="530.517904" y="307.824843" style="fill: #ffa500; stroke: #ffa500"/>
     <use xlink:href="#m1d86c54df2" x="535.006743" y="340.934528" style="fill: #ffa500; stroke: #ffa500"/>
    </g>
   </g>
   <g id="line2d_32">
    <path d="M 83.900916 137.796927 
L 88.457616 136.650561 
L 93.014439 135.504165 
L 97.570922 134.357854 
L 102.128231 133.211334 
L 106.685014 132.064947 
L 111.243011 130.918254 
L 115.799268 129.771998 
L 120.357357 128.625282 
L 124.911303 127.479607 
L 129.468248 126.333178 
L 134.034945 125.184295 
L 138.590401 124.038239 
L 143.150002 122.89114 
L 147.704084 121.74543 
L 152.252833 120.601061 
L 156.820218 119.452004 
L 161.368943 118.30764 
L 165.93539 117.158818 
L 170.495793 116.011516 
L 175.035907 114.869318 
L 179.597019 113.721837 
L 184.16065 112.573722 
L 188.713084 111.428424 
L 193.302186 110.2739 
L 197.823859 109.13634 
L 202.404598 107.98392 
L 206.944343 106.841813 
L 211.540251 105.685576 
L 216.086199 104.541908 
L 220.620147 103.401259 
L 225.19727 102.249747 
L 229.795047 101.093039 
L 234.284775 99.963513 
L 238.836774 98.818321 
L 243.437282 97.660925 
L 247.948305 96.526041 
L 252.58905 95.358522 
L 257.087866 94.226708 
L 261.686736 93.069723 
L 266.23204 91.926214 
L 270.854695 90.763244 
L 275.383053 89.623998 
L 279.959801 88.472577 
L 284.394635 87.356859 
L 289.032343 86.190101 
L 293.68862 85.018671 
L 298.144399 83.897683 
L 302.791451 82.728573 
L 307.192594 81.62133 
L 311.772463 80.469122 
L 316.298995 79.330332 
L 321.007162 78.145846 
L 325.645178 76.979008 
L 330.193631 75.834703 
L 334.632196 74.718043 
L 339.232162 73.560777 
L 343.699182 72.436958 
L 348.323861 71.273474 
L 352.789959 70.149886 
L 357.408186 68.988025 
L 362.186451 67.785901 
L 366.415885 66.721853 
L 371.144064 65.532329 
L 375.650056 64.398703 
L 380.298531 63.229231 
L 384.690656 62.124251 
L 389.213889 60.986287 
L 393.87419 59.813839 
L 398.677885 58.605315 
L 403.174961 57.47393 
L 407.801449 56.309988 
L 412.080614 55.233425 
L 416.968877 54.003624 
L 421.493635 52.865274 
L 426.14217 51.695784 
L 430.382271 50.629048 
L 435.278892 49.397143 
L 439.748337 48.272708 
L 444.3322 47.119487 
L 448.440432 46.085926 
L 453.251008 44.875668 
L 457.564969 43.790348 
L 462.619503 42.518713 
L 467.155044 41.377648 
L 471.799876 40.209086 
L 475.871172 39.184816 
L 480.729728 37.962485 
L 484.990536 36.890536 
L 490.077915 35.610636 
L 494.541783 34.487601 
L 499.1043 33.339747 
L 503.768772 32.166242 
L 507.736204 31.168101 
L 512.596685 29.945283 
L 517.569331 28.694246 
L 521.801712 27.629447 
L 526.117082 26.543769 
L 530.517904 25.436593 
L 535.006743 24.307273 
" clip-path="url(#p3433dfec1d)" style="fill: none; stroke-dasharray: 12.8,3.2,2,3.2; stroke-dashoffset: 0; stroke: #000000; stroke-width: 2"/>
   </g>
   <g id="patch_3">
    <path d="M 61.345625 383.56 
L 61.345625 7.2 
" style="fill: none; stroke: #000000; stroke-width: 0.8; stroke-linejoin: miter; stroke-linecap: square"/>
   </g>
   <g id="patch_4">
    <path d="M 557.562034 383.56 
L 557.562034 7.2 
" style="fill: none; stroke: #000000; stroke-width: 0.8; stroke-linejoin: miter; stroke-linecap: square"/>
   </g>
   <g id="patch_5">
    <path d="M 61.345625 383.56 
L 557.562034 383.56 
" style="fill: none; stroke: #000000; stroke-width: 0.8; stroke-linejoin: miter; stroke-linecap: square"/>
   </g>
   <g id="patch_6">
    <path d="M 61.345625 7.2 
L 557.562034 7.2 
" style="fill: none; stroke: #000000; stroke-width: 0.8; stroke-linejoin: miter; stroke-linecap: square"/>
   </g>
   <g id="legend_1">
    <g id="patch_7">
     <path d="M 68.345625 46.878125 
L 314.845625 46.878125 
Q 316.845625 46.878125 316.845625 44.878125 
L 316.845625 14.2 
Q 316.845625 12.2 314.845625 12.2 
L 68.345625 12.2 
Q 66.345625 12.2 66.345625 14.2 
L 66.345625 44.878125 
Q 66.345625 46.878125 68.345625 46.878125 
z
" style="fill: #ffffff; opacity: 0.8; stroke: #cccccc; stroke-linejoin: miter"/>
    </g>
    <g id="line2d_33">
     <path d="M 70.345625 20.298438 
L 80.345625 20.298438 
L 90.345625 20.298438 
" style="fill: none; stroke: #ffa500; stroke-width: 2; stroke-linecap: square"/>
     <g>
      <use xlink:href="#m1d86c54df2" x="80.345625" y="20.298438" style="fill: #ffa500; stroke: #ffa500"/>
     </g>
    </g>
    <g id="text_18">
     <!-- $\mathrm{s_r} = 1/10000$ -->
     <g transform="translate(98.345625 23.798438) scale(0.1 -0.1)">
      <defs>
       <path id="DejaVuSans-72" d="M 2631 2963 
Q 2534 3019 2420 3045 
Q 2306 3072 2169 3072 
Q 1681 3072 1420 2755 
Q 1159 2438 1159 1844 
L 1159 0 
L 581 0 
L 581 3500 
L 1159 3500 
L 1159 2956 
Q 1341 3275 1631 3429 
Q 1922 3584 2338 3584 
Q 2397 3584 2469 3576 
Q 2541 3569 2628 3553 
L 2631 2963 
z
" transform="scale(0.015625)"/>
       <path id="DejaVuSans-3d" d="M 678 2906 
L 4684 2906 
L 4684 2381 
L 678 2381 
L 678 2906 
z
M 678 1631 
L 4684 1631 
L 4684 1100 
L 678 1100 
L 678 1631 
z
" transform="scale(0.015625)"/>
       <path id="DejaVuSans-2f" d="M 1625 4666 
L 2156 4666 
L 531 -594 
L 0 -594 
L 1625 4666 
z
" transform="scale(0.015625)"/>
      </defs>
      <use xlink:href="#DejaVuSans-73" transform="translate(0 0.78125)"/>
      <use xlink:href="#DejaVuSans-72" transform="translate(53.056641 -15.625) scale(0.7)"/>
      <use xlink:href="#DejaVuSans-3d" transform="translate(104.052734 0.78125)"/>
      <use xlink:href="#DejaVuSans-31" transform="translate(207.324219 0.78125)"/>
      <use xlink:href="#DejaVuSans-2f" transform="translate(270.947266 0.78125)"/>
      <use xlink:href="#DejaVuSans-31" transform="translate(304.638672 0.78125)"/>
      <use xlink:href="#DejaVuSans-30" transform="translate(368.261719 0.78125)"/>
      <use xlink:href="#DejaVuSans-30" transform="translate(431.884766 0.78125)"/>
      <use xlink:href="#DejaVuSans-30" transform="translate(495.507812 0.78125)"/>
      <use xlink:href="#DejaVuSans-30" transform="translate(559.130859 0.78125)"/>
     </g>
    </g>
    <g id="line2d_34">
     <path d="M 70.345625 36.478125 
L 80.345625 36.478125 
L 90.345625 36.478125 
" style="fill: none; stroke-dasharray: 12.8,3.2,2,3.2; stroke-dashoffset: 0; stroke: #000000; stroke-width: 2"/>
    </g>
    <g id="text_19">
     <!-- $y = 0.188667 + 45.695654 \, s_s + 0.280100 \, s_s^2$ -->
     <g transform="translate(98.345625 39.978125) scale(0.1 -0.1)">
      <defs>
       <path id="DejaVuSans-Oblique-79" d="M 1588 -325 
Q 1188 -997 936 -1164 
Q 684 -1331 294 -1331 
L -159 -1331 
L -63 -850 
L 269 -850 
Q 509 -850 678 -719 
Q 847 -588 1056 -206 
L 1234 128 
L 459 3500 
L 1069 3500 
L 1650 819 
L 3256 3500 
L 3859 3500 
L 1588 -325 
z
" transform="scale(0.015625)"/>
       <path id="DejaVuSans-38" d="M 2034 2216 
Q 1584 2216 1326 1975 
Q 1069 1734 1069 1313 
Q 1069 891 1326 650 
Q 1584 409 2034 409 
Q 2484 409 2743 651 
Q 3003 894 3003 1313 
Q 3003 1734 2745 1975 
Q 2488 2216 2034 2216 
z
M 1403 2484 
Q 997 2584 770 2862 
Q 544 3141 544 3541 
Q 544 4100 942 4425 
Q 1341 4750 2034 4750 
Q 2731 4750 3128 4425 
Q 3525 4100 3525 3541 
Q 3525 3141 3298 2862 
Q 3072 2584 2669 2484 
Q 3125 2378 3379 2068 
Q 3634 1759 3634 1313 
Q 3634 634 3220 271 
Q 2806 -91 2034 -91 
Q 1263 -91 848 271 
Q 434 634 434 1313 
Q 434 1759 690 2068 
Q 947 2378 1403 2484 
z
M 1172 3481 
Q 1172 3119 1398 2916 
Q 1625 2713 2034 2713 
Q 2441 2713 2670 2916 
Q 2900 3119 2900 3481 
Q 2900 3844 2670 4047 
Q 2441 4250 2034 4250 
Q 1625 4250 1398 4047 
Q 1172 3844 1172 3481 
z
" transform="scale(0.015625)"/>
       <path id="DejaVuSans-36" d="M 2113 2584 
Q 1688 2584 1439 2293 
Q 1191 2003 1191 1497 
Q 1191 994 1439 701 
Q 1688 409 2113 409 
Q 2538 409 2786 701 
Q 3034 994 3034 1497 
Q 3034 2003 2786 2293 
Q 2538 2584 2113 2584 
z
M 3366 4563 
L 3366 3988 
Q 3128 4100 2886 4159 
Q 2644 4219 2406 4219 
Q 1781 4219 1451 3797 
Q 1122 3375 1075 2522 
Q 1259 2794 1537 2939 
Q 1816 3084 2150 3084 
Q 2853 3084 3261 2657 
Q 3669 2231 3669 1497 
Q 3669 778 3244 343 
Q 2819 -91 2113 -91 
Q 1303 -91 875 529 
Q 447 1150 447 2328 
Q 447 3434 972 4092 
Q 1497 4750 2381 4750 
Q 2619 4750 2861 4703 
Q 3103 4656 3366 4563 
z
" transform="scale(0.015625)"/>
       <path id="DejaVuSans-2b" d="M 2944 4013 
L 2944 2272 
L 4684 2272 
L 4684 1741 
L 2944 1741 
L 2944 0 
L 2419 0 
L 2419 1741 
L 678 1741 
L 678 2272 
L 2419 2272 
L 2419 4013 
L 2944 4013 
z
" transform="scale(0.015625)"/>
       <path id="DejaVuSans-34" d="M 2419 4116 
L 825 1625 
L 2419 1625 
L 2419 4116 
z
M 2253 4666 
L 3047 4666 
L 3047 1625 
L 3713 1625 
L 3713 1100 
L 3047 1100 
L 3047 0 
L 2419 0 
L 2419 1100 
L 313 1100 
L 313 1709 
L 2253 4666 
z
" transform="scale(0.015625)"/>
       <path id="DejaVuSans-39" d="M 703 97 
L 703 672 
Q 941 559 1184 500 
Q 1428 441 1663 441 
Q 2288 441 2617 861 
Q 2947 1281 2994 2138 
Q 2813 1869 2534 1725 
Q 2256 1581 1919 1581 
Q 1219 1581 811 2004 
Q 403 2428 403 3163 
Q 403 3881 828 4315 
Q 1253 4750 1959 4750 
Q 2769 4750 3195 4129 
Q 3622 3509 3622 2328 
Q 3622 1225 3098 567 
Q 2575 -91 1691 -91 
Q 1453 -91 1209 -44 
Q 966 3 703 97 
z
M 1959 2075 
Q 2384 2075 2632 2365 
Q 2881 2656 2881 3163 
Q 2881 3666 2632 3958 
Q 2384 4250 1959 4250 
Q 1534 4250 1286 3958 
Q 1038 3666 1038 3163 
Q 1038 2656 1286 2365 
Q 1534 2075 1959 2075 
z
" transform="scale(0.015625)"/>
       <path id="DejaVuSans-Oblique-73" d="M 3200 3397 
L 3091 2853 
Q 2863 2978 2609 3040 
Q 2356 3103 2088 3103 
Q 1634 3103 1373 2948 
Q 1113 2794 1113 2528 
Q 1113 2219 1719 2053 
Q 1766 2041 1788 2034 
L 1972 1978 
Q 2547 1819 2739 1644 
Q 2931 1469 2931 1166 
Q 2931 609 2489 259 
Q 2047 -91 1331 -91 
Q 1053 -91 747 -37 
Q 441 16 72 128 
L 184 722 
Q 500 559 806 475 
Q 1113 391 1394 391 
Q 1816 391 2080 572 
Q 2344 753 2344 1031 
Q 2344 1331 1650 1516 
L 1591 1531 
L 1394 1581 
Q 956 1697 753 1886 
Q 550 2075 550 2369 
Q 550 2928 970 3256 
Q 1391 3584 2113 3584 
Q 2397 3584 2667 3537 
Q 2938 3491 3200 3397 
z
" transform="scale(0.015625)"/>
      </defs>
      <use xlink:href="#DejaVuSans-Oblique-79" transform="translate(0 0.765625)"/>
      <use xlink:href="#DejaVuSans-3d" transform="translate(78.662109 0.765625)"/>
      <use xlink:href="#DejaVuSans-30" transform="translate(181.933594 0.765625)"/>
      <use xlink:href="#DejaVuSans-2e" transform="translate(245.556641 0.765625)"/>
      <use xlink:href="#DejaVuSans-31" transform="translate(277.34375 0.765625)"/>
      <use xlink:href="#DejaVuSans-38" transform="translate(340.966797 0.765625)"/>
      <use xlink:href="#DejaVuSans-38" transform="translate(404.589844 0.765625)"/>
      <use xlink:href="#DejaVuSans-36" transform="translate(468.212891 0.765625)"/>
      <use xlink:href="#DejaVuSans-36" transform="translate(531.835938 0.765625)"/>
      <use xlink:href="#DejaVuSans-37" transform="translate(595.458984 0.765625)"/>
      <use xlink:href="#DejaVuSans-2b" transform="translate(678.564453 0.765625)"/>
      <use xlink:href="#DejaVuSans-34" transform="translate(781.835938 0.765625)"/>
      <use xlink:href="#DejaVuSans-35" transform="translate(845.458984 0.765625)"/>
      <use xlink:href="#DejaVuSans-2e" transform="translate(909.082031 0.765625)"/>
      <use xlink:href="#DejaVuSans-36" transform="translate(940.869141 0.765625)"/>
      <use xlink:href="#DejaVuSans-39" transform="translate(1004.492188 0.765625)"/>
      <use xlink:href="#DejaVuSans-35" transform="translate(1068.115234 0.765625)"/>
      <use xlink:href="#DejaVuSans-36" transform="translate(1131.738281 0.765625)"/>
      <use xlink:href="#DejaVuSans-35" transform="translate(1195.361328 0.765625)"/>
      <use xlink:href="#DejaVuSans-34" transform="translate(1258.984375 0.765625)"/>
      <use xlink:href="#DejaVuSans-Oblique-73" transform="translate(1338.843098 0.765625)"/>
      <use xlink:href="#DejaVuSans-Oblique-73" transform="translate(1390.942708 -15.640625) scale(0.7)"/>
      <use xlink:href="#DejaVuSans-2b" transform="translate(1449.629231 0.765625)"/>
      <use xlink:href="#DejaVuSans-30" transform="translate(1552.900715 0.765625)"/>
      <use xlink:href="#DejaVuSans-2e" transform="translate(1616.523762 0.765625)"/>
      <use xlink:href="#DejaVuSans-32" transform="translate(1642.810872 0.765625)"/>
      <use xlink:href="#DejaVuSans-38" transform="translate(1706.433918 0.765625)"/>
      <use xlink:href="#DejaVuSans-30" transform="translate(1770.056965 0.765625)"/>
      <use xlink:href="#DejaVuSans-31" transform="translate(1833.680012 0.765625)"/>
      <use xlink:href="#DejaVuSans-30" transform="translate(1897.303059 0.765625)"/>
      <use xlink:href="#DejaVuSans-30" transform="translate(1960.926106 0.765625)"/>
      <use xlink:href="#DejaVuSans-Oblique-73" transform="translate(2040.784829 0.765625)"/>
      <use xlink:href="#DejaVuSans-32" transform="translate(2097.534334 39.046875) scale(0.7)"/>
      <use xlink:href="#DejaVuSans-Oblique-73" transform="translate(2092.884438 -26.578125) scale(0.7)"/>
     </g>
    </g>
   </g>
  </g>
 </g>
 <defs>
  <clipPath id="p3433dfec1d">
   <rect x="61.345625" y="7.2" width="496.216409" height="376.36"/>
  </clipPath>
 </defs>
</svg>
