<?xml version="1.0" encoding="utf-8" standalone="no"?>
<!DOCTYPE svg PUBLIC "-//W3C//DTD SVG 1.1//EN"
  "http://www.w3.org/Graphics/SVG/1.1/DTD/svg11.dtd">
<svg xmlns:xlink="http://www.w3.org/1999/xlink" width="564.946125pt" height="423.051875pt" viewBox="0 0 564.946125 423.051875" xmlns="http://www.w3.org/2000/svg" version="1.1">
 <metadata>
  <rdf:RDF xmlns:dc="http://purl.org/dc/elements/1.1/" xmlns:cc="http://creativecommons.org/ns#" xmlns:rdf="http://www.w3.org/1999/02/22-rdf-syntax-ns#">
   <cc:Work>
    <dc:type rdf:resource="http://purl.org/dc/dcmitype/StillImage"/>
    <dc:date>2025-08-25T19:10:40.608116</dc:date>
    <dc:format>image/svg+xml</dc:format>
    <dc:creator>
     <cc:Agent>
      <dc:title>Matplotlib v3.7.5, https://matplotlib.org/</dc:title>
     </cc:Agent>
    </dc:creator>
   </cc:Work>
  </rdf:RDF>
 </metadata>
 <defs>
  <style type="text/css">*{stroke-linejoin: round; stroke-linecap: butt}</style>
 </defs>
 <g id="figure_1">
  <g id="patch_1">
   <path d="M 0 423.051875 
L 564.946125 423.051875 
L 564.946125 0 
L 0 0 
z
" style="fill: #ffffff"/>
  </g>
  <g id="axes_1">
   <g id="patch_2">
    <path d="M 61.345625 383.56 
L 557.746125 383.56 
L 557.746125 7.2 
L 61.345625 7.2 
z
" style="fill: #ffffff"/>
   </g>
   <g id="matplotlib.axis_1">
    <g id="xtick_1">
     <g id="line2d_1">
      <path d="M 83.457559 383.56 
L 83.457559 7.2 
" clip-path="url(#p316e3a480c)" style="fill: none; stroke-dasharray: 1.85,0.8; stroke-dashoffset: 0; stroke: #b0b0b0; stroke-width: 0.5"/>
     </g>
     <g id="line2d_2">
      <defs>
       <path id="mdab8395b16" d="M 0 0 
L 0 3.5 
" style="stroke: #000000; stroke-width: 0.8"/>
      </defs>
      <g>
       <use xlink:href="#mdab8395b16" x="83.457559" y="383.56" style="stroke: #000000; stroke-width: 0.8"/>
      </g>
     </g>
     <g id="text_1">
      <!-- 0.0000 -->
      <g transform="translate(65.962247 398.158437) scale(0.1 -0.1)">
       <defs>
        <path id="DejaVuSans-30" d="M 2034 4250 
Q 1547 4250 1301 3770 
Q 1056 3291 1056 2328 
Q 1056 1369 1301 889 
Q 1547 409 2034 409 
Q 2525 409 2770 889 
Q 3016 1369 3016 2328 
Q 3016 3291 2770 3770 
Q 2525 4250 2034 4250 
z
M 2034 4750 
Q 2819 4750 3233 4129 
Q 3647 3509 3647 2328 
Q 3647 1150 3233 529 
Q 2819 -91 2034 -91 
Q 1250 -91 836 529 
Q 422 1150 422 2328 
Q 422 3509 836 4129 
Q 1250 4750 2034 4750 
z
" transform="scale(0.015625)"/>
        <path id="DejaVuSans-2e" d="M 684 794 
L 1344 794 
L 1344 0 
L 684 0 
L 684 794 
z
" transform="scale(0.015625)"/>
       </defs>
       <use xlink:href="#DejaVuSans-30"/>
       <use xlink:href="#DejaVuSans-2e" x="63.623047"/>
       <use xlink:href="#DejaVuSans-30" x="95.410156"/>
       <use xlink:href="#DejaVuSans-30" x="159.033203"/>
       <use xlink:href="#DejaVuSans-30" x="222.65625"/>
       <use xlink:href="#DejaVuSans-30" x="286.279297"/>
      </g>
     </g>
    </g>
    <g id="xtick_2">
     <g id="line2d_3">
      <path d="M 173.802541 383.56 
L 173.802541 7.2 
" clip-path="url(#p316e3a480c)" style="fill: none; stroke-dasharray: 1.85,0.8; stroke-dashoffset: 0; stroke: #b0b0b0; stroke-width: 0.5"/>
     </g>
     <g id="line2d_4">
      <g>
       <use xlink:href="#mdab8395b16" x="173.802541" y="383.56" style="stroke: #000000; stroke-width: 0.8"/>
      </g>
     </g>
     <g id="text_2">
      <!-- 0.0002 -->
      <g transform="translate(156.307228 398.158437) scale(0.1 -0.1)">
       <defs>
        <path id="DejaVuSans-32" d="M 1228 531 
L 3431 531 
L 3431 0 
L 469 0 
L 469 531 
Q 828 903 1448 1529 
Q 2069 2156 2228 2338 
Q 2531 2678 2651 2914 
Q 2772 3150 2772 3378 
Q 2772 3750 2511 3984 
Q 2250 4219 1831 4219 
Q 1534 4219 1204 4116 
Q 875 4013 500 3803 
L 500 4441 
Q 881 4594 1212 4672 
Q 1544 4750 1819 4750 
Q 2544 4750 2975 4387 
Q 3406 4025 3406 3419 
Q 3406 3131 3298 2873 
Q 3191 2616 2906 2266 
Q 2828 2175 2409 1742 
Q 1991 1309 1228 531 
z
" transform="scale(0.015625)"/>
       </defs>
       <use xlink:href="#DejaVuSans-30"/>
       <use xlink:href="#DejaVuSans-2e" x="63.623047"/>
       <use xlink:href="#DejaVuSans-30" x="95.410156"/>
       <use xlink:href="#DejaVuSans-30" x="159.033203"/>
       <use xlink:href="#DejaVuSans-30" x="222.65625"/>
       <use xlink:href="#DejaVuSans-32" x="286.279297"/>
      </g>
     </g>
    </g>
    <g id="xtick_3">
     <g id="line2d_5">
      <path d="M 264.147522 383.56 
L 264.147522 7.2 
" clip-path="url(#p316e3a480c)" style="fill: none; stroke-dasharray: 1.85,0.8; stroke-dashoffset: 0; stroke: #b0b0b0; stroke-width: 0.5"/>
     </g>
     <g id="line2d_6">
      <g>
       <use xlink:href="#mdab8395b16" x="264.147522" y="383.56" style="stroke: #000000; stroke-width: 0.8"/>
      </g>
     </g>
     <g id="text_3">
      <!-- 0.0004 -->
      <g transform="translate(246.652209 398.158437) scale(0.1 -0.1)">
       <defs>
        <path id="DejaVuSans-34" d="M 2419 4116 
L 825 1625 
L 2419 1625 
L 2419 4116 
z
M 2253 4666 
L 3047 4666 
L 3047 1625 
L 3713 1625 
L 3713 1100 
L 3047 1100 
L 3047 0 
L 2419 0 
L 2419 1100 
L 313 1100 
L 313 1709 
L 2253 4666 
z
" transform="scale(0.015625)"/>
       </defs>
       <use xlink:href="#DejaVuSans-30"/>
       <use xlink:href="#DejaVuSans-2e" x="63.623047"/>
       <use xlink:href="#DejaVuSans-30" x="95.410156"/>
       <use xlink:href="#DejaVuSans-30" x="159.033203"/>
       <use xlink:href="#DejaVuSans-30" x="222.65625"/>
       <use xlink:href="#DejaVuSans-34" x="286.279297"/>
      </g>
     </g>
    </g>
    <g id="xtick_4">
     <g id="line2d_7">
      <path d="M 354.492503 383.56 
L 354.492503 7.2 
" clip-path="url(#p316e3a480c)" style="fill: none; stroke-dasharray: 1.85,0.8; stroke-dashoffset: 0; stroke: #b0b0b0; stroke-width: 0.5"/>
     </g>
     <g id="line2d_8">
      <g>
       <use xlink:href="#mdab8395b16" x="354.492503" y="383.56" style="stroke: #000000; stroke-width: 0.8"/>
      </g>
     </g>
     <g id="text_4">
      <!-- 0.0006 -->
      <g transform="translate(336.997191 398.158437) scale(0.1 -0.1)">
       <defs>
        <path id="DejaVuSans-36" d="M 2113 2584 
Q 1688 2584 1439 2293 
Q 1191 2003 1191 1497 
Q 1191 994 1439 701 
Q 1688 409 2113 409 
Q 2538 409 2786 701 
Q 3034 994 3034 1497 
Q 3034 2003 2786 2293 
Q 2538 2584 2113 2584 
z
M 3366 4563 
L 3366 3988 
Q 3128 4100 2886 4159 
Q 2644 4219 2406 4219 
Q 1781 4219 1451 3797 
Q 1122 3375 1075 2522 
Q 1259 2794 1537 2939 
Q 1816 3084 2150 3084 
Q 2853 3084 3261 2657 
Q 3669 2231 3669 1497 
Q 3669 778 3244 343 
Q 2819 -91 2113 -91 
Q 1303 -91 875 529 
Q 447 1150 447 2328 
Q 447 3434 972 4092 
Q 1497 4750 2381 4750 
Q 2619 4750 2861 4703 
Q 3103 4656 3366 4563 
z
" transform="scale(0.015625)"/>
       </defs>
       <use xlink:href="#DejaVuSans-30"/>
       <use xlink:href="#DejaVuSans-2e" x="63.623047"/>
       <use xlink:href="#DejaVuSans-30" x="95.410156"/>
       <use xlink:href="#DejaVuSans-30" x="159.033203"/>
       <use xlink:href="#DejaVuSans-30" x="222.65625"/>
       <use xlink:href="#DejaVuSans-36" x="286.279297"/>
      </g>
     </g>
    </g>
    <g id="xtick_5">
     <g id="line2d_9">
      <path d="M 444.837485 383.56 
L 444.837485 7.2 
" clip-path="url(#p316e3a480c)" style="fill: none; stroke-dasharray: 1.85,0.8; stroke-dashoffset: 0; stroke: #b0b0b0; stroke-width: 0.5"/>
     </g>
     <g id="line2d_10">
      <g>
       <use xlink:href="#mdab8395b16" x="444.837485" y="383.56" style="stroke: #000000; stroke-width: 0.8"/>
      </g>
     </g>
     <g id="text_5">
      <!-- 0.0008 -->
      <g transform="translate(427.342172 398.158437) scale(0.1 -0.1)">
       <defs>
        <path id="DejaVuSans-38" d="M 2034 2216 
Q 1584 2216 1326 1975 
Q 1069 1734 1069 1313 
Q 1069 891 1326 650 
Q 1584 409 2034 409 
Q 2484 409 2743 651 
Q 3003 894 3003 1313 
Q 3003 1734 2745 1975 
Q 2488 2216 2034 2216 
z
M 1403 2484 
Q 997 2584 770 2862 
Q 544 3141 544 3541 
Q 544 4100 942 4425 
Q 1341 4750 2034 4750 
Q 2731 4750 3128 4425 
Q 3525 4100 3525 3541 
Q 3525 3141 3298 2862 
Q 3072 2584 2669 2484 
Q 3125 2378 3379 2068 
Q 3634 1759 3634 1313 
Q 3634 634 3220 271 
Q 2806 -91 2034 -91 
Q 1263 -91 848 271 
Q 434 634 434 1313 
Q 434 1759 690 2068 
Q 947 2378 1403 2484 
z
M 1172 3481 
Q 1172 3119 1398 2916 
Q 1625 2713 2034 2713 
Q 2441 2713 2670 2916 
Q 2900 3119 2900 3481 
Q 2900 3844 2670 4047 
Q 2441 4250 2034 4250 
Q 1625 4250 1398 4047 
Q 1172 3844 1172 3481 
z
" transform="scale(0.015625)"/>
       </defs>
       <use xlink:href="#DejaVuSans-30"/>
       <use xlink:href="#DejaVuSans-2e" x="63.623047"/>
       <use xlink:href="#DejaVuSans-30" x="95.410156"/>
       <use xlink:href="#DejaVuSans-30" x="159.033203"/>
       <use xlink:href="#DejaVuSans-30" x="222.65625"/>
       <use xlink:href="#DejaVuSans-38" x="286.279297"/>
      </g>
     </g>
    </g>
    <g id="xtick_6">
     <g id="line2d_11">
      <path d="M 535.182466 383.56 
L 535.182466 7.2 
" clip-path="url(#p316e3a480c)" style="fill: none; stroke-dasharray: 1.85,0.8; stroke-dashoffset: 0; stroke: #b0b0b0; stroke-width: 0.5"/>
     </g>
     <g id="line2d_12">
      <g>
       <use xlink:href="#mdab8395b16" x="535.182466" y="383.56" style="stroke: #000000; stroke-width: 0.8"/>
      </g>
     </g>
     <g id="text_6">
      <!-- 0.0010 -->
      <g transform="translate(517.687153 398.158437) scale(0.1 -0.1)">
       <defs>
        <path id="DejaVuSans-31" d="M 794 531 
L 1825 531 
L 1825 4091 
L 703 3866 
L 703 4441 
L 1819 4666 
L 2450 4666 
L 2450 531 
L 3481 531 
L 3481 0 
L 794 0 
L 794 531 
z
" transform="scale(0.015625)"/>
       </defs>
       <use xlink:href="#DejaVuSans-30"/>
       <use xlink:href="#DejaVuSans-2e" x="63.623047"/>
       <use xlink:href="#DejaVuSans-30" x="95.410156"/>
       <use xlink:href="#DejaVuSans-30" x="159.033203"/>
       <use xlink:href="#DejaVuSans-31" x="222.65625"/>
       <use xlink:href="#DejaVuSans-30" x="286.279297"/>
      </g>
     </g>
    </g>
    <g id="text_7">
     <!-- $\mathrm{s_s}$ -->
     <g transform="translate(303.965875 413.35625) scale(0.12 -0.12)">
      <defs>
       <path id="DejaVuSans-73" d="M 2834 3397 
L 2834 2853 
Q 2591 2978 2328 3040 
Q 2066 3103 1784 3103 
Q 1356 3103 1142 2972 
Q 928 2841 928 2578 
Q 928 2378 1081 2264 
Q 1234 2150 1697 2047 
L 1894 2003 
Q 2506 1872 2764 1633 
Q 3022 1394 3022 966 
Q 3022 478 2636 193 
Q 2250 -91 1575 -91 
Q 1294 -91 989 -36 
Q 684 19 347 128 
L 347 722 
Q 666 556 975 473 
Q 1284 391 1588 391 
Q 1994 391 2212 530 
Q 2431 669 2431 922 
Q 2431 1156 2273 1281 
Q 2116 1406 1581 1522 
L 1381 1569 
Q 847 1681 609 1914 
Q 372 2147 372 2553 
Q 372 3047 722 3315 
Q 1072 3584 1716 3584 
Q 2034 3584 2315 3537 
Q 2597 3491 2834 3397 
z
" transform="scale(0.015625)"/>
      </defs>
      <use xlink:href="#DejaVuSans-73"/>
      <use xlink:href="#DejaVuSans-73" transform="translate(53.056641 -16.40625) scale(0.7)"/>
     </g>
    </g>
   </g>
   <g id="matplotlib.axis_2">
    <g id="ytick_1">
     <g id="line2d_13">
      <path d="M 61.345625 371.750366 
L 557.746125 371.750366 
" clip-path="url(#p316e3a480c)" style="fill: none; stroke-dasharray: 1.85,0.8; stroke-dashoffset: 0; stroke: #b0b0b0; stroke-width: 0.5"/>
     </g>
     <g id="line2d_14">
      <defs>
       <path id="m10228a1db4" d="M 0 0 
L -3.5 0 
" style="stroke: #000000; stroke-width: 0.8"/>
      </defs>
      <g>
       <use xlink:href="#m10228a1db4" x="61.345625" y="371.750366" style="stroke: #000000; stroke-width: 0.8"/>
      </g>
     </g>
     <g id="text_8">
      <!-- 0.00 -->
      <g transform="translate(32.08 375.549585) scale(0.1 -0.1)">
       <use xlink:href="#DejaVuSans-30"/>
       <use xlink:href="#DejaVuSans-2e" x="63.623047"/>
       <use xlink:href="#DejaVuSans-30" x="95.410156"/>
       <use xlink:href="#DejaVuSans-30" x="159.033203"/>
      </g>
     </g>
    </g>
    <g id="ytick_2">
     <g id="line2d_15">
      <path d="M 61.345625 324.077416 
L 557.746125 324.077416 
" clip-path="url(#p316e3a480c)" style="fill: none; stroke-dasharray: 1.85,0.8; stroke-dashoffset: 0; stroke: #b0b0b0; stroke-width: 0.5"/>
     </g>
     <g id="line2d_16">
      <g>
       <use xlink:href="#m10228a1db4" x="61.345625" y="324.077416" style="stroke: #000000; stroke-width: 0.8"/>
      </g>
     </g>
     <g id="text_9">
      <!-- 0.05 -->
      <g transform="translate(32.08 327.876635) scale(0.1 -0.1)">
       <defs>
        <path id="DejaVuSans-35" d="M 691 4666 
L 3169 4666 
L 3169 4134 
L 1269 4134 
L 1269 2991 
Q 1406 3038 1543 3061 
Q 1681 3084 1819 3084 
Q 2600 3084 3056 2656 
Q 3513 2228 3513 1497 
Q 3513 744 3044 326 
Q 2575 -91 1722 -91 
Q 1428 -91 1123 -41 
Q 819 9 494 109 
L 494 744 
Q 775 591 1075 516 
Q 1375 441 1709 441 
Q 2250 441 2565 725 
Q 2881 1009 2881 1497 
Q 2881 1984 2565 2268 
Q 2250 2553 1709 2553 
Q 1456 2553 1204 2497 
Q 953 2441 691 2322 
L 691 4666 
z
" transform="scale(0.015625)"/>
       </defs>
       <use xlink:href="#DejaVuSans-30"/>
       <use xlink:href="#DejaVuSans-2e" x="63.623047"/>
       <use xlink:href="#DejaVuSans-30" x="95.410156"/>
       <use xlink:href="#DejaVuSans-35" x="159.033203"/>
      </g>
     </g>
    </g>
    <g id="ytick_3">
     <g id="line2d_17">
      <path d="M 61.345625 276.404466 
L 557.746125 276.404466 
" clip-path="url(#p316e3a480c)" style="fill: none; stroke-dasharray: 1.85,0.8; stroke-dashoffset: 0; stroke: #b0b0b0; stroke-width: 0.5"/>
     </g>
     <g id="line2d_18">
      <g>
       <use xlink:href="#m10228a1db4" x="61.345625" y="276.404466" style="stroke: #000000; stroke-width: 0.8"/>
      </g>
     </g>
     <g id="text_10">
      <!-- 0.10 -->
      <g transform="translate(32.08 280.203685) scale(0.1 -0.1)">
       <use xlink:href="#DejaVuSans-30"/>
       <use xlink:href="#DejaVuSans-2e" x="63.623047"/>
       <use xlink:href="#DejaVuSans-31" x="95.410156"/>
       <use xlink:href="#DejaVuSans-30" x="159.033203"/>
      </g>
     </g>
    </g>
    <g id="ytick_4">
     <g id="line2d_19">
      <path d="M 61.345625 228.731516 
L 557.746125 228.731516 
" clip-path="url(#p316e3a480c)" style="fill: none; stroke-dasharray: 1.85,0.8; stroke-dashoffset: 0; stroke: #b0b0b0; stroke-width: 0.5"/>
     </g>
     <g id="line2d_20">
      <g>
       <use xlink:href="#m10228a1db4" x="61.345625" y="228.731516" style="stroke: #000000; stroke-width: 0.8"/>
      </g>
     </g>
     <g id="text_11">
      <!-- 0.15 -->
      <g transform="translate(32.08 232.530735) scale(0.1 -0.1)">
       <use xlink:href="#DejaVuSans-30"/>
       <use xlink:href="#DejaVuSans-2e" x="63.623047"/>
       <use xlink:href="#DejaVuSans-31" x="95.410156"/>
       <use xlink:href="#DejaVuSans-35" x="159.033203"/>
      </g>
     </g>
    </g>
    <g id="ytick_5">
     <g id="line2d_21">
      <path d="M 61.345625 181.058566 
L 557.746125 181.058566 
" clip-path="url(#p316e3a480c)" style="fill: none; stroke-dasharray: 1.85,0.8; stroke-dashoffset: 0; stroke: #b0b0b0; stroke-width: 0.5"/>
     </g>
     <g id="line2d_22">
      <g>
       <use xlink:href="#m10228a1db4" x="61.345625" y="181.058566" style="stroke: #000000; stroke-width: 0.8"/>
      </g>
     </g>
     <g id="text_12">
      <!-- 0.20 -->
      <g transform="translate(32.08 184.857785) scale(0.1 -0.1)">
       <use xlink:href="#DejaVuSans-30"/>
       <use xlink:href="#DejaVuSans-2e" x="63.623047"/>
       <use xlink:href="#DejaVuSans-32" x="95.410156"/>
       <use xlink:href="#DejaVuSans-30" x="159.033203"/>
      </g>
     </g>
    </g>
    <g id="ytick_6">
     <g id="line2d_23">
      <path d="M 61.345625 133.385617 
L 557.746125 133.385617 
" clip-path="url(#p316e3a480c)" style="fill: none; stroke-dasharray: 1.85,0.8; stroke-dashoffset: 0; stroke: #b0b0b0; stroke-width: 0.5"/>
     </g>
     <g id="line2d_24">
      <g>
       <use xlink:href="#m10228a1db4" x="61.345625" y="133.385617" style="stroke: #000000; stroke-width: 0.8"/>
      </g>
     </g>
     <g id="text_13">
      <!-- 0.25 -->
      <g transform="translate(32.08 137.184835) scale(0.1 -0.1)">
       <use xlink:href="#DejaVuSans-30"/>
       <use xlink:href="#DejaVuSans-2e" x="63.623047"/>
       <use xlink:href="#DejaVuSans-32" x="95.410156"/>
       <use xlink:href="#DejaVuSans-35" x="159.033203"/>
      </g>
     </g>
    </g>
    <g id="ytick_7">
     <g id="line2d_25">
      <path d="M 61.345625 85.712667 
L 557.746125 85.712667 
" clip-path="url(#p316e3a480c)" style="fill: none; stroke-dasharray: 1.85,0.8; stroke-dashoffset: 0; stroke: #b0b0b0; stroke-width: 0.5"/>
     </g>
     <g id="line2d_26">
      <g>
       <use xlink:href="#m10228a1db4" x="61.345625" y="85.712667" style="stroke: #000000; stroke-width: 0.8"/>
      </g>
     </g>
     <g id="text_14">
      <!-- 0.30 -->
      <g transform="translate(32.08 89.511885) scale(0.1 -0.1)">
       <defs>
        <path id="DejaVuSans-33" d="M 2597 2516 
Q 3050 2419 3304 2112 
Q 3559 1806 3559 1356 
Q 3559 666 3084 287 
Q 2609 -91 1734 -91 
Q 1441 -91 1130 -33 
Q 819 25 488 141 
L 488 750 
Q 750 597 1062 519 
Q 1375 441 1716 441 
Q 2309 441 2620 675 
Q 2931 909 2931 1356 
Q 2931 1769 2642 2001 
Q 2353 2234 1838 2234 
L 1294 2234 
L 1294 2753 
L 1863 2753 
Q 2328 2753 2575 2939 
Q 2822 3125 2822 3475 
Q 2822 3834 2567 4026 
Q 2313 4219 1838 4219 
Q 1578 4219 1281 4162 
Q 984 4106 628 3988 
L 628 4550 
Q 988 4650 1302 4700 
Q 1616 4750 1894 4750 
Q 2613 4750 3031 4423 
Q 3450 4097 3450 3541 
Q 3450 3153 3228 2886 
Q 3006 2619 2597 2516 
z
" transform="scale(0.015625)"/>
       </defs>
       <use xlink:href="#DejaVuSans-30"/>
       <use xlink:href="#DejaVuSans-2e" x="63.623047"/>
       <use xlink:href="#DejaVuSans-33" x="95.410156"/>
       <use xlink:href="#DejaVuSans-30" x="159.033203"/>
      </g>
     </g>
    </g>
    <g id="ytick_8">
     <g id="line2d_27">
      <path d="M 61.345625 38.039717 
L 557.746125 38.039717 
" clip-path="url(#p316e3a480c)" style="fill: none; stroke-dasharray: 1.85,0.8; stroke-dashoffset: 0; stroke: #b0b0b0; stroke-width: 0.5"/>
     </g>
     <g id="line2d_28">
      <g>
       <use xlink:href="#m10228a1db4" x="61.345625" y="38.039717" style="stroke: #000000; stroke-width: 0.8"/>
      </g>
     </g>
     <g id="text_15">
      <!-- 0.35 -->
      <g transform="translate(32.08 41.838935) scale(0.1 -0.1)">
       <use xlink:href="#DejaVuSans-30"/>
       <use xlink:href="#DejaVuSans-2e" x="63.623047"/>
       <use xlink:href="#DejaVuSans-33" x="95.410156"/>
       <use xlink:href="#DejaVuSans-35" x="159.033203"/>
      </g>
     </g>
    </g>
    <g id="text_16">
     <!-- $\sup_{t\geq0}(u(t) - \tilde{u}(t))$ -->
     <g transform="translate(16.92 239.84) rotate(-90) scale(0.12 -0.12)">
      <defs>
       <path id="DejaVuSans-75" d="M 544 1381 
L 544 3500 
L 1119 3500 
L 1119 1403 
Q 1119 906 1312 657 
Q 1506 409 1894 409 
Q 2359 409 2629 706 
Q 2900 1003 2900 1516 
L 2900 3500 
L 3475 3500 
L 3475 0 
L 2900 0 
L 2900 538 
Q 2691 219 2414 64 
Q 2138 -91 1772 -91 
Q 1169 -91 856 284 
Q 544 659 544 1381 
z
M 1991 3584 
L 1991 3584 
z
" transform="scale(0.015625)"/>
       <path id="DejaVuSans-70" d="M 1159 525 
L 1159 -1331 
L 581 -1331 
L 581 3500 
L 1159 3500 
L 1159 2969 
Q 1341 3281 1617 3432 
Q 1894 3584 2278 3584 
Q 2916 3584 3314 3078 
Q 3713 2572 3713 1747 
Q 3713 922 3314 415 
Q 2916 -91 2278 -91 
Q 1894 -91 1617 61 
Q 1341 213 1159 525 
z
M 3116 1747 
Q 3116 2381 2855 2742 
Q 2594 3103 2138 3103 
Q 1681 3103 1420 2742 
Q 1159 2381 1159 1747 
Q 1159 1113 1420 752 
Q 1681 391 2138 391 
Q 2594 391 2855 752 
Q 3116 1113 3116 1747 
z
" transform="scale(0.015625)"/>
       <path id="DejaVuSans-Oblique-74" d="M 2706 3500 
L 2619 3053 
L 1472 3053 
L 1100 1153 
Q 1081 1047 1072 975 
Q 1063 903 1063 863 
Q 1063 663 1183 572 
Q 1303 481 1569 481 
L 2150 481 
L 2053 0 
L 1503 0 
Q 991 0 739 200 
Q 488 400 488 806 
Q 488 878 497 964 
Q 506 1050 525 1153 
L 897 3053 
L 409 3053 
L 500 3500 
L 978 3500 
L 1172 4494 
L 1747 4494 
L 1556 3500 
L 2706 3500 
z
" transform="scale(0.015625)"/>
       <path id="DejaVuSans-2265" d="M 678 3175 
L 678 3725 
L 4684 2578 
L 4684 2047 
L 678 897 
L 678 1453 
L 3681 2309 
L 678 3175 
z
M 4684 531 
L 4684 0 
L 678 0 
L 678 531 
L 4684 531 
z
" transform="scale(0.015625)"/>
       <path id="DejaVuSans-28" d="M 1984 4856 
Q 1566 4138 1362 3434 
Q 1159 2731 1159 2009 
Q 1159 1288 1364 580 
Q 1569 -128 1984 -844 
L 1484 -844 
Q 1016 -109 783 600 
Q 550 1309 550 2009 
Q 550 2706 781 3412 
Q 1013 4119 1484 4856 
L 1984 4856 
z
" transform="scale(0.015625)"/>
       <path id="DejaVuSans-Oblique-75" d="M 428 1388 
L 838 3500 
L 1416 3500 
L 1006 1409 
Q 975 1256 961 1147 
Q 947 1038 947 966 
Q 947 700 1109 554 
Q 1272 409 1569 409 
Q 2031 409 2368 721 
Q 2706 1034 2809 1563 
L 3194 3500 
L 3769 3500 
L 3091 0 
L 2516 0 
L 2631 550 
Q 2388 244 2052 76 
Q 1716 -91 1338 -91 
Q 878 -91 622 161 
Q 366 413 366 863 
Q 366 956 381 1097 
Q 397 1238 428 1388 
z
" transform="scale(0.015625)"/>
       <path id="DejaVuSans-29" d="M 513 4856 
L 1013 4856 
Q 1481 4119 1714 3412 
Q 1947 2706 1947 2009 
Q 1947 1309 1714 600 
Q 1481 -109 1013 -844 
L 513 -844 
Q 928 -128 1133 580 
Q 1338 1288 1338 2009 
Q 1338 2731 1133 3434 
Q 928 4138 513 4856 
z
" transform="scale(0.015625)"/>
       <path id="DejaVuSans-2212" d="M 678 2272 
L 4684 2272 
L 4684 1741 
L 678 1741 
L 678 2272 
z
" transform="scale(0.015625)"/>
       <path id="DejaVuSans-303" d="M -1621 4281 
L -1799 4453 
Q -1867 4516 -1919 4545 
Q -1971 4575 -2011 4575 
Q -2130 4575 -2186 4461 
Q -2242 4347 -2249 4091 
L -2639 4091 
Q -2633 4513 -2473 4742 
Q -2314 4972 -2030 4972 
Q -1911 4972 -1811 4928 
Q -1711 4884 -1596 4781 
L -1417 4609 
Q -1349 4547 -1297 4517 
Q -1246 4488 -1205 4488 
Q -1086 4488 -1030 4602 
Q -974 4716 -967 4972 
L -577 4972 
Q -583 4550 -742 4320 
Q -902 4091 -1186 4091 
Q -1305 4091 -1405 4134 
Q -1505 4178 -1621 4281 
z
" transform="scale(0.015625)"/>
      </defs>
      <use xlink:href="#DejaVuSans-73" transform="translate(0 0.046875)"/>
      <use xlink:href="#DejaVuSans-75" transform="translate(52.099609 0.046875)"/>
      <use xlink:href="#DejaVuSans-70" transform="translate(115.478516 0.046875)"/>
      <use xlink:href="#DejaVuSans-Oblique-74" transform="translate(11 -91.453125) scale(0.7)"/>
      <use xlink:href="#DejaVuSans-2265" transform="translate(52.083984 -91.453125) scale(0.7)"/>
      <use xlink:href="#DejaVuSans-30" transform="translate(124.374023 -91.453125) scale(0.7)"/>
      <use xlink:href="#DejaVuSans-28" transform="translate(178.955078 0.046875)"/>
      <use xlink:href="#DejaVuSans-Oblique-75" transform="translate(217.96875 0.046875)"/>
      <use xlink:href="#DejaVuSans-28" transform="translate(281.347656 0.046875)"/>
      <use xlink:href="#DejaVuSans-Oblique-74" transform="translate(320.361328 0.046875)"/>
      <use xlink:href="#DejaVuSans-29" transform="translate(359.570312 0.046875)"/>
      <use xlink:href="#DejaVuSans-2212" transform="translate(418.066406 0.046875)"/>
      <use xlink:href="#DejaVuSans-303" transform="translate(586.416992 3.3125)"/>
      <use xlink:href="#DejaVuSans-Oblique-75" transform="translate(521.337891 0.046875)"/>
      <use xlink:href="#DejaVuSans-28" transform="translate(584.716797 0.046875)"/>
      <use xlink:href="#DejaVuSans-Oblique-74" transform="translate(623.730469 0.046875)"/>
      <use xlink:href="#DejaVuSans-29" transform="translate(662.939453 0.046875)"/>
      <use xlink:href="#DejaVuSans-29" transform="translate(701.953125 0.046875)"/>
     </g>
    </g>
   </g>
   <g id="line2d_29">
    <path d="M 83.909284 365.543425 
L 88.467651 366.452727 
L 93.025975 365.703621 
L 97.584558 365.664045 
L 102.143181 365.947451 
L 106.701611 366.238185 
L 111.259437 365.276732 
L 115.818395 363.341561 
L 120.378271 365.751139 
L 124.934458 365.224718 
L 129.495564 365.42184 
L 134.053987 366.283039 
L 138.613225 365.035513 
L 143.170039 364.511036 
L 147.732589 363.960888 
L 152.286587 364.704086 
L 156.849096 364.841182 
L 161.408363 362.32219 
L 165.964391 361.55032 
L 170.528667 360.742303 
L 175.085329 365.595514 
L 179.651108 365.094511 
L 184.199064 362.583184 
L 188.75474 365.444227 
L 193.312838 362.555689 
L 197.876229 363.745052 
L 202.426457 365.541676 
L 207.0147 359.976246 
L 211.570125 359.168723 
L 216.12273 356.171843 
L 220.676547 357.771466 
L 225.241899 359.435585 
L 229.788919 353.479512 
L 234.334282 361.899315 
L 238.903157 355.36957 
L 243.473467 351.284495 
L 248.020367 357.200187 
L 252.579576 356.824275 
L 257.13111 362.713733 
L 261.72311 363.172436 
L 266.268124 353.940393 
L 270.817537 346.500302 
L 275.435845 351.293075 
L 279.945122 345.66455 
L 284.492231 360.757387 
L 289.067439 352.129314 
L 293.659936 360.893528 
L 298.155709 355.228645 
L 302.741494 347.237451 
L 307.305382 350.887442 
L 311.832133 358.971532 
L 316.425536 333.532166 
L 320.95751 355.671247 
L 325.539503 337.843423 
L 330.166957 345.730386 
L 334.694993 353.286773 
L 339.247427 349.528556 
L 343.817736 358.423088 
L 348.398853 361.184949 
L 352.98316 341.659658 
L 357.562478 351.614512 
L 362.128075 343.136081 
L 366.670667 356.774996 
L 371.18043 335.504262 
L 375.64702 339.647116 
L 380.254476 344.520204 
L 384.808398 351.459995 
L 389.504244 342.332021 
L 393.921413 336.352594 
L 398.467954 353.042728 
L 403.149638 361.560958 
L 407.739617 354.284291 
L 412.223867 342.362397 
L 416.833874 355.392452 
L 421.322112 332.347653 
L 425.932849 341.936743 
L 430.404492 353.239125 
L 434.994452 348.235837 
L 439.707486 349.576735 
L 444.2602 328.803643 
L 448.635333 344.829678 
L 453.420628 337.277408 
L 457.711832 341.532414 
L 462.421407 339.714389 
L 466.925222 357.799541 
L 471.537376 328.866785 
L 476.261826 345.788067 
L 480.752992 334.017492 
L 485.348046 344.741809 
L 489.684993 353.371976 
L 494.490231 352.759355 
L 499.027851 346.543711 
L 503.276246 339.287351 
L 508.011043 339.977592 
L 512.446075 336.502801 
L 516.974744 349.108462 
L 521.600049 326.286483 
L 526.325115 355.215289 
L 530.709942 323.721051 
L 535.182466 348.138909 
" clip-path="url(#p316e3a480c)" style="fill: none; stroke: #ffa500; stroke-width: 2; stroke-linecap: square"/>
    <defs>
     <path id="m218e645e44" d="M 0 2 
C 0.530406 2 1.03916 1.789267 1.414214 1.414214 
C 1.789267 1.03916 2 0.530406 2 0 
C 2 -0.530406 1.789267 -1.03916 1.414214 -1.414214 
C 1.03916 -1.789267 0.530406 -2 0 -2 
C -0.530406 -2 -1.03916 -1.789267 -1.414214 -1.414214 
C -1.789267 -1.03916 -2 -0.530406 -2 0 
C -2 0.530406 -1.789267 1.03916 -1.414214 1.414214 
C -1.03916 1.789267 -0.530406 2 0 2 
z
" style="stroke: #ffa500"/>
    </defs>
    <g clip-path="url(#p316e3a480c)">
     <use xlink:href="#m218e645e44" x="83.909284" y="365.543425" style="fill: #ffa500; stroke: #ffa500"/>
     <use xlink:href="#m218e645e44" x="88.467651" y="366.452727" style="fill: #ffa500; stroke: #ffa500"/>
     <use xlink:href="#m218e645e44" x="93.025975" y="365.703621" style="fill: #ffa500; stroke: #ffa500"/>
     <use xlink:href="#m218e645e44" x="97.584558" y="365.664045" style="fill: #ffa500; stroke: #ffa500"/>
     <use xlink:href="#m218e645e44" x="102.143181" y="365.947451" style="fill: #ffa500; stroke: #ffa500"/>
     <use xlink:href="#m218e645e44" x="106.701611" y="366.238185" style="fill: #ffa500; stroke: #ffa500"/>
     <use xlink:href="#m218e645e44" x="111.259437" y="365.276732" style="fill: #ffa500; stroke: #ffa500"/>
     <use xlink:href="#m218e645e44" x="115.818395" y="363.341561" style="fill: #ffa500; stroke: #ffa500"/>
     <use xlink:href="#m218e645e44" x="120.378271" y="365.751139" style="fill: #ffa500; stroke: #ffa500"/>
     <use xlink:href="#m218e645e44" x="124.934458" y="365.224718" style="fill: #ffa500; stroke: #ffa500"/>
     <use xlink:href="#m218e645e44" x="129.495564" y="365.42184" style="fill: #ffa500; stroke: #ffa500"/>
     <use xlink:href="#m218e645e44" x="134.053987" y="366.283039" style="fill: #ffa500; stroke: #ffa500"/>
     <use xlink:href="#m218e645e44" x="138.613225" y="365.035513" style="fill: #ffa500; stroke: #ffa500"/>
     <use xlink:href="#m218e645e44" x="143.170039" y="364.511036" style="fill: #ffa500; stroke: #ffa500"/>
     <use xlink:href="#m218e645e44" x="147.732589" y="363.960888" style="fill: #ffa500; stroke: #ffa500"/>
     <use xlink:href="#m218e645e44" x="152.286587" y="364.704086" style="fill: #ffa500; stroke: #ffa500"/>
     <use xlink:href="#m218e645e44" x="156.849096" y="364.841182" style="fill: #ffa500; stroke: #ffa500"/>
     <use xlink:href="#m218e645e44" x="161.408363" y="362.32219" style="fill: #ffa500; stroke: #ffa500"/>
     <use xlink:href="#m218e645e44" x="165.964391" y="361.55032" style="fill: #ffa500; stroke: #ffa500"/>
     <use xlink:href="#m218e645e44" x="170.528667" y="360.742303" style="fill: #ffa500; stroke: #ffa500"/>
     <use xlink:href="#m218e645e44" x="175.085329" y="365.595514" style="fill: #ffa500; stroke: #ffa500"/>
     <use xlink:href="#m218e645e44" x="179.651108" y="365.094511" style="fill: #ffa500; stroke: #ffa500"/>
     <use xlink:href="#m218e645e44" x="184.199064" y="362.583184" style="fill: #ffa500; stroke: #ffa500"/>
     <use xlink:href="#m218e645e44" x="188.75474" y="365.444227" style="fill: #ffa500; stroke: #ffa500"/>
     <use xlink:href="#m218e645e44" x="193.312838" y="362.555689" style="fill: #ffa500; stroke: #ffa500"/>
     <use xlink:href="#m218e645e44" x="197.876229" y="363.745052" style="fill: #ffa500; stroke: #ffa500"/>
     <use xlink:href="#m218e645e44" x="202.426457" y="365.541676" style="fill: #ffa500; stroke: #ffa500"/>
     <use xlink:href="#m218e645e44" x="207.0147" y="359.976246" style="fill: #ffa500; stroke: #ffa500"/>
     <use xlink:href="#m218e645e44" x="211.570125" y="359.168723" style="fill: #ffa500; stroke: #ffa500"/>
     <use xlink:href="#m218e645e44" x="216.12273" y="356.171843" style="fill: #ffa500; stroke: #ffa500"/>
     <use xlink:href="#m218e645e44" x="220.676547" y="357.771466" style="fill: #ffa500; stroke: #ffa500"/>
     <use xlink:href="#m218e645e44" x="225.241899" y="359.435585" style="fill: #ffa500; stroke: #ffa500"/>
     <use xlink:href="#m218e645e44" x="229.788919" y="353.479512" style="fill: #ffa500; stroke: #ffa500"/>
     <use xlink:href="#m218e645e44" x="234.334282" y="361.899315" style="fill: #ffa500; stroke: #ffa500"/>
     <use xlink:href="#m218e645e44" x="238.903157" y="355.36957" style="fill: #ffa500; stroke: #ffa500"/>
     <use xlink:href="#m218e645e44" x="243.473467" y="351.284495" style="fill: #ffa500; stroke: #ffa500"/>
     <use xlink:href="#m218e645e44" x="248.020367" y="357.200187" style="fill: #ffa500; stroke: #ffa500"/>
     <use xlink:href="#m218e645e44" x="252.579576" y="356.824275" style="fill: #ffa500; stroke: #ffa500"/>
     <use xlink:href="#m218e645e44" x="257.13111" y="362.713733" style="fill: #ffa500; stroke: #ffa500"/>
     <use xlink:href="#m218e645e44" x="261.72311" y="363.172436" style="fill: #ffa500; stroke: #ffa500"/>
     <use xlink:href="#m218e645e44" x="266.268124" y="353.940393" style="fill: #ffa500; stroke: #ffa500"/>
     <use xlink:href="#m218e645e44" x="270.817537" y="346.500302" style="fill: #ffa500; stroke: #ffa500"/>
     <use xlink:href="#m218e645e44" x="275.435845" y="351.293075" style="fill: #ffa500; stroke: #ffa500"/>
     <use xlink:href="#m218e645e44" x="279.945122" y="345.66455" style="fill: #ffa500; stroke: #ffa500"/>
     <use xlink:href="#m218e645e44" x="284.492231" y="360.757387" style="fill: #ffa500; stroke: #ffa500"/>
     <use xlink:href="#m218e645e44" x="289.067439" y="352.129314" style="fill: #ffa500; stroke: #ffa500"/>
     <use xlink:href="#m218e645e44" x="293.659936" y="360.893528" style="fill: #ffa500; stroke: #ffa500"/>
     <use xlink:href="#m218e645e44" x="298.155709" y="355.228645" style="fill: #ffa500; stroke: #ffa500"/>
     <use xlink:href="#m218e645e44" x="302.741494" y="347.237451" style="fill: #ffa500; stroke: #ffa500"/>
     <use xlink:href="#m218e645e44" x="307.305382" y="350.887442" style="fill: #ffa500; stroke: #ffa500"/>
     <use xlink:href="#m218e645e44" x="311.832133" y="358.971532" style="fill: #ffa500; stroke: #ffa500"/>
     <use xlink:href="#m218e645e44" x="316.425536" y="333.532166" style="fill: #ffa500; stroke: #ffa500"/>
     <use xlink:href="#m218e645e44" x="320.95751" y="355.671247" style="fill: #ffa500; stroke: #ffa500"/>
     <use xlink:href="#m218e645e44" x="325.539503" y="337.843423" style="fill: #ffa500; stroke: #ffa500"/>
     <use xlink:href="#m218e645e44" x="330.166957" y="345.730386" style="fill: #ffa500; stroke: #ffa500"/>
     <use xlink:href="#m218e645e44" x="334.694993" y="353.286773" style="fill: #ffa500; stroke: #ffa500"/>
     <use xlink:href="#m218e645e44" x="339.247427" y="349.528556" style="fill: #ffa500; stroke: #ffa500"/>
     <use xlink:href="#m218e645e44" x="343.817736" y="358.423088" style="fill: #ffa500; stroke: #ffa500"/>
     <use xlink:href="#m218e645e44" x="348.398853" y="361.184949" style="fill: #ffa500; stroke: #ffa500"/>
     <use xlink:href="#m218e645e44" x="352.98316" y="341.659658" style="fill: #ffa500; stroke: #ffa500"/>
     <use xlink:href="#m218e645e44" x="357.562478" y="351.614512" style="fill: #ffa500; stroke: #ffa500"/>
     <use xlink:href="#m218e645e44" x="362.128075" y="343.136081" style="fill: #ffa500; stroke: #ffa500"/>
     <use xlink:href="#m218e645e44" x="366.670667" y="356.774996" style="fill: #ffa500; stroke: #ffa500"/>
     <use xlink:href="#m218e645e44" x="371.18043" y="335.504262" style="fill: #ffa500; stroke: #ffa500"/>
     <use xlink:href="#m218e645e44" x="375.64702" y="339.647116" style="fill: #ffa500; stroke: #ffa500"/>
     <use xlink:href="#m218e645e44" x="380.254476" y="344.520204" style="fill: #ffa500; stroke: #ffa500"/>
     <use xlink:href="#m218e645e44" x="384.808398" y="351.459995" style="fill: #ffa500; stroke: #ffa500"/>
     <use xlink:href="#m218e645e44" x="389.504244" y="342.332021" style="fill: #ffa500; stroke: #ffa500"/>
     <use xlink:href="#m218e645e44" x="393.921413" y="336.352594" style="fill: #ffa500; stroke: #ffa500"/>
     <use xlink:href="#m218e645e44" x="398.467954" y="353.042728" style="fill: #ffa500; stroke: #ffa500"/>
     <use xlink:href="#m218e645e44" x="403.149638" y="361.560958" style="fill: #ffa500; stroke: #ffa500"/>
     <use xlink:href="#m218e645e44" x="407.739617" y="354.284291" style="fill: #ffa500; stroke: #ffa500"/>
     <use xlink:href="#m218e645e44" x="412.223867" y="342.362397" style="fill: #ffa500; stroke: #ffa500"/>
     <use xlink:href="#m218e645e44" x="416.833874" y="355.392452" style="fill: #ffa500; stroke: #ffa500"/>
     <use xlink:href="#m218e645e44" x="421.322112" y="332.347653" style="fill: #ffa500; stroke: #ffa500"/>
     <use xlink:href="#m218e645e44" x="425.932849" y="341.936743" style="fill: #ffa500; stroke: #ffa500"/>
     <use xlink:href="#m218e645e44" x="430.404492" y="353.239125" style="fill: #ffa500; stroke: #ffa500"/>
     <use xlink:href="#m218e645e44" x="434.994452" y="348.235837" style="fill: #ffa500; stroke: #ffa500"/>
     <use xlink:href="#m218e645e44" x="439.707486" y="349.576735" style="fill: #ffa500; stroke: #ffa500"/>
     <use xlink:href="#m218e645e44" x="444.2602" y="328.803643" style="fill: #ffa500; stroke: #ffa500"/>
     <use xlink:href="#m218e645e44" x="448.635333" y="344.829678" style="fill: #ffa500; stroke: #ffa500"/>
     <use xlink:href="#m218e645e44" x="453.420628" y="337.277408" style="fill: #ffa500; stroke: #ffa500"/>
     <use xlink:href="#m218e645e44" x="457.711832" y="341.532414" style="fill: #ffa500; stroke: #ffa500"/>
     <use xlink:href="#m218e645e44" x="462.421407" y="339.714389" style="fill: #ffa500; stroke: #ffa500"/>
     <use xlink:href="#m218e645e44" x="466.925222" y="357.799541" style="fill: #ffa500; stroke: #ffa500"/>
     <use xlink:href="#m218e645e44" x="471.537376" y="328.866785" style="fill: #ffa500; stroke: #ffa500"/>
     <use xlink:href="#m218e645e44" x="476.261826" y="345.788067" style="fill: #ffa500; stroke: #ffa500"/>
     <use xlink:href="#m218e645e44" x="480.752992" y="334.017492" style="fill: #ffa500; stroke: #ffa500"/>
     <use xlink:href="#m218e645e44" x="485.348046" y="344.741809" style="fill: #ffa500; stroke: #ffa500"/>
     <use xlink:href="#m218e645e44" x="489.684993" y="353.371976" style="fill: #ffa500; stroke: #ffa500"/>
     <use xlink:href="#m218e645e44" x="494.490231" y="352.759355" style="fill: #ffa500; stroke: #ffa500"/>
     <use xlink:href="#m218e645e44" x="499.027851" y="346.543711" style="fill: #ffa500; stroke: #ffa500"/>
     <use xlink:href="#m218e645e44" x="503.276246" y="339.287351" style="fill: #ffa500; stroke: #ffa500"/>
     <use xlink:href="#m218e645e44" x="508.011043" y="339.977592" style="fill: #ffa500; stroke: #ffa500"/>
     <use xlink:href="#m218e645e44" x="512.446075" y="336.502801" style="fill: #ffa500; stroke: #ffa500"/>
     <use xlink:href="#m218e645e44" x="516.974744" y="349.108462" style="fill: #ffa500; stroke: #ffa500"/>
     <use xlink:href="#m218e645e44" x="521.600049" y="326.286483" style="fill: #ffa500; stroke: #ffa500"/>
     <use xlink:href="#m218e645e44" x="526.325115" y="355.215289" style="fill: #ffa500; stroke: #ffa500"/>
     <use xlink:href="#m218e645e44" x="530.709942" y="323.721051" style="fill: #ffa500; stroke: #ffa500"/>
     <use xlink:href="#m218e645e44" x="535.182466" y="348.138909" style="fill: #ffa500; stroke: #ffa500"/>
    </g>
   </g>
   <g id="line2d_30">
    <path d="M 83.909284 191.696918 
L 88.467651 190.006115 
L 93.025975 188.315328 
L 97.584558 186.624445 
L 102.143181 184.933546 
L 106.701611 183.242719 
L 111.259437 181.552115 
L 115.818395 179.86109 
L 120.378271 178.169725 
L 124.934458 176.479728 
L 129.495564 174.787905 
L 134.053987 173.097078 
L 138.613225 171.405947 
L 143.170039 169.715716 
L 147.732589 168.023356 
L 152.286587 166.334168 
L 156.849096 164.641823 
L 161.408363 162.950679 
L 165.964391 161.260737 
L 170.528667 159.567735 
L 175.085329 157.877557 
L 179.651108 156.183996 
L 184.199064 154.497046 
L 188.75474 152.807232 
L 193.312838 151.11652 
L 197.876229 149.423843 
L 202.426457 147.736049 
L 207.0147 146.034153 
L 211.570125 144.34443 
L 216.12273 142.655753 
L 220.676547 140.966626 
L 225.241899 139.273219 
L 229.788919 137.586612 
L 234.334282 135.900619 
L 238.903157 134.205905 
L 243.473467 132.510658 
L 248.020367 130.824093 
L 252.579576 129.132963 
L 257.13111 127.444678 
L 261.72311 125.741384 
L 266.268124 124.055518 
L 270.817537 122.368019 
L 275.435845 120.654965 
L 279.945122 118.982353 
L 284.492231 117.295708 
L 289.067439 115.598639 
L 293.659936 113.895158 
L 298.155709 112.227553 
L 302.741494 110.52656 
L 307.305382 108.833689 
L 311.832133 107.154592 
L 316.425536 105.450772 
L 320.95751 103.769737 
L 325.539503 102.070149 
L 330.166957 100.353697 
L 334.694993 98.674121 
L 339.247427 96.985496 
L 343.817736 95.290239 
L 348.398853 93.590973 
L 352.98316 91.890524 
L 357.562478 90.191924 
L 362.128075 88.498414 
L 366.670667 86.813436 
L 371.18043 85.140636 
L 375.64702 83.483848 
L 380.254476 81.77481 
L 384.808398 80.085628 
L 389.504244 78.343801 
L 393.921413 76.705344 
L 398.467954 75.018899 
L 403.149638 73.282324 
L 407.739617 71.579765 
L 412.223867 69.916424 
L 416.833874 68.206436 
L 421.322112 66.541614 
L 425.932849 64.831354 
L 430.404492 63.172687 
L 434.994452 61.470133 
L 439.707486 59.721927 
L 444.2602 58.033187 
L 448.635333 56.410317 
L 453.420628 54.635305 
L 457.711832 53.043567 
L 462.421407 51.296641 
L 466.925222 49.626037 
L 471.537376 47.915247 
L 476.261826 46.162802 
L 480.752992 44.496889 
L 485.348046 42.79244 
L 489.684993 41.183731 
L 494.490231 39.401318 
L 499.027851 37.718172 
L 503.276246 36.142308 
L 508.011043 34.386022 
L 512.446075 32.740928 
L 516.974744 31.0611 
L 521.600049 29.345427 
L 526.325115 27.592749 
L 530.709942 25.966276 
L 535.182466 24.307273 
" clip-path="url(#p316e3a480c)" style="fill: none; stroke-dasharray: 12.8,3.2,2,3.2; stroke-dashoffset: 0; stroke: #000000; stroke-width: 2"/>
   </g>
   <g id="patch_3">
    <path d="M 61.345625 383.56 
L 61.345625 7.2 
" style="fill: none; stroke: #000000; stroke-width: 0.8; stroke-linejoin: miter; stroke-linecap: square"/>
   </g>
   <g id="patch_4">
    <path d="M 557.746125 383.56 
L 557.746125 7.2 
" style="fill: none; stroke: #000000; stroke-width: 0.8; stroke-linejoin: miter; stroke-linecap: square"/>
   </g>
   <g id="patch_5">
    <path d="M 61.345625 383.56 
L 557.746125 383.56 
" style="fill: none; stroke: #000000; stroke-width: 0.8; stroke-linejoin: miter; stroke-linecap: square"/>
   </g>
   <g id="patch_6">
    <path d="M 61.345625 7.2 
L 557.746125 7.2 
" style="fill: none; stroke: #000000; stroke-width: 0.8; stroke-linejoin: miter; stroke-linecap: square"/>
   </g>
   <g id="legend_1">
    <g id="patch_7">
     <path d="M 68.345625 46.878125 
L 264.145625 46.878125 
Q 266.145625 46.878125 266.145625 44.878125 
L 266.145625 14.2 
Q 266.145625 12.2 264.145625 12.2 
L 68.345625 12.2 
Q 66.345625 12.2 66.345625 14.2 
L 66.345625 44.878125 
Q 66.345625 46.878125 68.345625 46.878125 
z
" style="fill: #ffffff; opacity: 0.8; stroke: #cccccc; stroke-linejoin: miter"/>
    </g>
    <g id="line2d_31">
     <path d="M 70.345625 20.298438 
L 80.345625 20.298438 
L 90.345625 20.298438 
" style="fill: none; stroke: #ffa500; stroke-width: 2; stroke-linecap: square"/>
     <g>
      <use xlink:href="#m218e645e44" x="80.345625" y="20.298438" style="fill: #ffa500; stroke: #ffa500"/>
     </g>
    </g>
    <g id="text_17">
     <!-- $\mathrm{s_r} = 1/10000$ -->
     <g transform="translate(98.345625 23.798438) scale(0.1 -0.1)">
      <defs>
       <path id="DejaVuSans-72" d="M 2631 2963 
Q 2534 3019 2420 3045 
Q 2306 3072 2169 3072 
Q 1681 3072 1420 2755 
Q 1159 2438 1159 1844 
L 1159 0 
L 581 0 
L 581 3500 
L 1159 3500 
L 1159 2956 
Q 1341 3275 1631 3429 
Q 1922 3584 2338 3584 
Q 2397 3584 2469 3576 
Q 2541 3569 2628 3553 
L 2631 2963 
z
" transform="scale(0.015625)"/>
       <path id="DejaVuSans-3d" d="M 678 2906 
L 4684 2906 
L 4684 2381 
L 678 2381 
L 678 2906 
z
M 678 1631 
L 4684 1631 
L 4684 1100 
L 678 1100 
L 678 1631 
z
" transform="scale(0.015625)"/>
       <path id="DejaVuSans-2f" d="M 1625 4666 
L 2156 4666 
L 531 -594 
L 0 -594 
L 1625 4666 
z
" transform="scale(0.015625)"/>
      </defs>
      <use xlink:href="#DejaVuSans-73" transform="translate(0 0.78125)"/>
      <use xlink:href="#DejaVuSans-72" transform="translate(53.056641 -15.625) scale(0.7)"/>
      <use xlink:href="#DejaVuSans-3d" transform="translate(104.052734 0.78125)"/>
      <use xlink:href="#DejaVuSans-31" transform="translate(207.324219 0.78125)"/>
      <use xlink:href="#DejaVuSans-2f" transform="translate(270.947266 0.78125)"/>
      <use xlink:href="#DejaVuSans-31" transform="translate(304.638672 0.78125)"/>
      <use xlink:href="#DejaVuSans-30" transform="translate(368.261719 0.78125)"/>
      <use xlink:href="#DejaVuSans-30" transform="translate(431.884766 0.78125)"/>
      <use xlink:href="#DejaVuSans-30" transform="translate(495.507812 0.78125)"/>
      <use xlink:href="#DejaVuSans-30" transform="translate(559.130859 0.78125)"/>
     </g>
    </g>
    <g id="line2d_32">
     <path d="M 70.345625 36.478125 
L 80.345625 36.478125 
L 90.345625 36.478125 
" style="fill: none; stroke-dasharray: 12.8,3.2,2,3.2; stroke-dashoffset: 0; stroke: #000000; stroke-width: 2"/>
    </g>
    <g id="text_18">
     <!-- $0.1887 + 175.7339 \, s_s + 2.2404 \, s_s^2$ -->
     <g transform="translate(98.345625 39.978125) scale(0.1 -0.1)">
      <defs>
       <path id="DejaVuSans-37" d="M 525 4666 
L 3525 4666 
L 3525 4397 
L 1831 0 
L 1172 0 
L 2766 4134 
L 525 4134 
L 525 4666 
z
" transform="scale(0.015625)"/>
       <path id="DejaVuSans-2b" d="M 2944 4013 
L 2944 2272 
L 4684 2272 
L 4684 1741 
L 2944 1741 
L 2944 0 
L 2419 0 
L 2419 1741 
L 678 1741 
L 678 2272 
L 2419 2272 
L 2419 4013 
L 2944 4013 
z
" transform="scale(0.015625)"/>
       <path id="DejaVuSans-39" d="M 703 97 
L 703 672 
Q 941 559 1184 500 
Q 1428 441 1663 441 
Q 2288 441 2617 861 
Q 2947 1281 2994 2138 
Q 2813 1869 2534 1725 
Q 2256 1581 1919 1581 
Q 1219 1581 811 2004 
Q 403 2428 403 3163 
Q 403 3881 828 4315 
Q 1253 4750 1959 4750 
Q 2769 4750 3195 4129 
Q 3622 3509 3622 2328 
Q 3622 1225 3098 567 
Q 2575 -91 1691 -91 
Q 1453 -91 1209 -44 
Q 966 3 703 97 
z
M 1959 2075 
Q 2384 2075 2632 2365 
Q 2881 2656 2881 3163 
Q 2881 3666 2632 3958 
Q 2384 4250 1959 4250 
Q 1534 4250 1286 3958 
Q 1038 3666 1038 3163 
Q 1038 2656 1286 2365 
Q 1534 2075 1959 2075 
z
" transform="scale(0.015625)"/>
       <path id="DejaVuSans-Oblique-73" d="M 3200 3397 
L 3091 2853 
Q 2863 2978 2609 3040 
Q 2356 3103 2088 3103 
Q 1634 3103 1373 2948 
Q 1113 2794 1113 2528 
Q 1113 2219 1719 2053 
Q 1766 2041 1788 2034 
L 1972 1978 
Q 2547 1819 2739 1644 
Q 2931 1469 2931 1166 
Q 2931 609 2489 259 
Q 2047 -91 1331 -91 
Q 1053 -91 747 -37 
Q 441 16 72 128 
L 184 722 
Q 500 559 806 475 
Q 1113 391 1394 391 
Q 1816 391 2080 572 
Q 2344 753 2344 1031 
Q 2344 1331 1650 1516 
L 1591 1531 
L 1394 1581 
Q 956 1697 753 1886 
Q 550 2075 550 2369 
Q 550 2928 970 3256 
Q 1391 3584 2113 3584 
Q 2397 3584 2667 3537 
Q 2938 3491 3200 3397 
z
" transform="scale(0.015625)"/>
      </defs>
      <use xlink:href="#DejaVuSans-30" transform="translate(0 0.765625)"/>
      <use xlink:href="#DejaVuSans-2e" transform="translate(63.623047 0.765625)"/>
      <use xlink:href="#DejaVuSans-31" transform="translate(95.410156 0.765625)"/>
      <use xlink:href="#DejaVuSans-38" transform="translate(159.033203 0.765625)"/>
      <use xlink:href="#DejaVuSans-38" transform="translate(222.65625 0.765625)"/>
      <use xlink:href="#DejaVuSans-37" transform="translate(286.279297 0.765625)"/>
      <use xlink:href="#DejaVuSans-2b" transform="translate(369.384766 0.765625)"/>
      <use xlink:href="#DejaVuSans-31" transform="translate(472.65625 0.765625)"/>
      <use xlink:href="#DejaVuSans-37" transform="translate(536.279297 0.765625)"/>
      <use xlink:href="#DejaVuSans-35" transform="translate(599.902344 0.765625)"/>
      <use xlink:href="#DejaVuSans-2e" transform="translate(663.525391 0.765625)"/>
      <use xlink:href="#DejaVuSans-37" transform="translate(687.5625 0.765625)"/>
      <use xlink:href="#DejaVuSans-33" transform="translate(751.185547 0.765625)"/>
      <use xlink:href="#DejaVuSans-33" transform="translate(814.808594 0.765625)"/>
      <use xlink:href="#DejaVuSans-39" transform="translate(878.431641 0.765625)"/>
      <use xlink:href="#DejaVuSans-Oblique-73" transform="translate(958.290364 0.765625)"/>
      <use xlink:href="#DejaVuSans-Oblique-73" transform="translate(1010.389973 -15.640625) scale(0.7)"/>
      <use xlink:href="#DejaVuSans-2b" transform="translate(1069.076497 0.765625)"/>
      <use xlink:href="#DejaVuSans-32" transform="translate(1172.347981 0.765625)"/>
      <use xlink:href="#DejaVuSans-2e" transform="translate(1235.971028 0.765625)"/>
      <use xlink:href="#DejaVuSans-32" transform="translate(1262.258137 0.765625)"/>
      <use xlink:href="#DejaVuSans-34" transform="translate(1325.881184 0.765625)"/>
      <use xlink:href="#DejaVuSans-30" transform="translate(1389.504231 0.765625)"/>
      <use xlink:href="#DejaVuSans-34" transform="translate(1453.127278 0.765625)"/>
      <use xlink:href="#DejaVuSans-Oblique-73" transform="translate(1532.986001 0.765625)"/>
      <use xlink:href="#DejaVuSans-32" transform="translate(1589.735506 39.046875) scale(0.7)"/>
      <use xlink:href="#DejaVuSans-Oblique-73" transform="translate(1585.08561 -26.578125) scale(0.7)"/>
     </g>
    </g>
   </g>
  </g>
 </g>
 <defs>
  <clipPath id="p316e3a480c">
   <rect x="61.345625" y="7.2" width="496.4005" height="376.36"/>
  </clipPath>
 </defs>
</svg>
